<?xml version="1.0" standalone="no"?>
<!DOCTYPE svg PUBLIC "-//W3C//DTD SVG 20010904//EN"
 "http://www.w3.org/TR/2001/REC-SVG-20010904/DTD/svg10.dtd">
<svg version="1.0" xmlns="http://www.w3.org/2000/svg"
 width="562.000000pt" height="562.000000pt" viewBox="0 0 562.000000 562.000000"
 preserveAspectRatio="xMidYMid meet">
<metadata>
Created by potrace 1.11, written by Peter Selinger 2001-2013
</metadata>
<g transform="translate(0.000000,562.000000) scale(0.100000,-0.100000)"
fill="#000000" stroke="none">
<path d="M346 5440 c-73 -22 -144 -97 -165 -175 -8 -28 -11 -740 -11 -2385 1
-1985 3 -2351 15 -2384 8 -22 12 -43 9 -48 -3 -5 -1 -7 4 -6 16 5 64 -61 58
-80 -6 -16 -5 -16 7 0 13 16 15 16 34 -2 12 -10 24 -16 27 -13 3 4 6 1 6 -6 0
-7 4 -9 10 -6 5 3 10 1 10 -5 0 -6 14 -8 35 -6 19 3 35 0 35 -5 0 -6 6 -7 12
-2 20 12 38 12 38 1 0 -6 6 -5 15 2 9 7 18 10 22 6 3 -3 1 -6 -5 -6 -7 0 -11
-3 -11 -7 3 -20 -2 -24 -17 -12 -13 10 -17 10 -25 -2 -7 -12 -9 -12 -9 1 0 13
-1 13 -10 0 -6 -9 -10 -11 -10 -3 0 7 -7 10 -17 6 -11 -4 -14 -3 -9 5 5 8 2
10 -9 6 -21 -9 -7 -22 28 -26 16 -3 33 -11 38 -19 6 -10 9 -11 9 -1 0 7 4 11
10 7 5 -3 6 -13 3 -22 -4 -11 -3 -14 6 -9 6 4 10 15 9 23 -2 9 3 18 10 20 7 3
11 -1 10 -9 -2 -8 4 -12 16 -10 11 2 15 -1 11 -7 -3 -6 -1 -11 5 -11 7 0 10 6
7 14 -7 18 22 14 34 -5 8 -13 9 -12 9 19 0 4 -4 8 -10 8 -5 1 -11 2 -12 4 -10
7 -46 5 -41 -3 3 -6 1 -7 -5 -3 -17 10 -15 19 9 34 12 8 18 9 14 3 -3 -6 1
-11 9 -11 9 0 16 -5 16 -11 0 -5 4 -8 10 -4 5 3 8 11 6 18 -1 7 -1 9 1 5 3 -5
12 -8 20 -8 9 0 13 -6 9 -15 -3 -8 -9 -22 -12 -30 -4 -9 -1 -15 7 -15 7 0 9 3
5 7 -3 4 4 13 16 21 13 8 16 11 5 8 -15 -5 -16 -3 -6 17 15 28 24 37 16 15 -3
-10 -2 -20 3 -23 5 -3 11 4 15 15 3 11 11 20 18 20 8 0 8 -3 -1 -12 -19 -19
-14 -33 6 -16 27 23 42 30 42 19 0 -6 -6 -11 -14 -11 -7 0 -19 -7 -26 -15 -14
-17 0 -21 17 -4 8 8 17 8 31 0 27 -14 29 -14 29 4 0 9 -6 14 -12 11 -6 -2 -12
1 -12 8 0 7 6 13 14 13 7 0 13 -4 13 -9 0 -5 6 -6 13 -1 22 14 36 12 29 -5 -5
-15 -3 -15 11 -4 9 8 20 11 26 8 5 -3 12 0 14 6 4 10 6 9 6 -1 1 -11 4 -11 16
-1 13 11 14 10 8 -6 -6 -17 -5 -17 10 -6 9 8 20 11 26 8 5 -3 11 -1 13 6 3 7
7 5 11 -6 4 -10 3 -15 -3 -11 -19 12 -10 -12 15 -39 14 -15 25 -21 25 -15 0
10 3 10 12 1 7 -7 16 -12 21 -12 5 0 -1 9 -14 20 -13 10 -19 19 -12 20 6 0 15
-5 18 -10 5 -8 12 -7 23 2 13 11 15 10 9 -4 -3 -10 -2 -18 3 -18 6 0 10 5 10
11 0 5 4 8 10 4 5 -3 7 -13 4 -23 -5 -14 -4 -14 4 -2 7 9 7 18 1 26 -7 9 -1
11 23 9 45 -4 47 -6 18 -15 -22 -7 -20 -8 13 -7 20 0 37 4 37 9 0 4 5 8 11 8
5 0 7 -4 4 -10 -3 -5 -1 -10 4 -10 6 0 11 5 11 11 0 5 4 8 9 5 5 -4 7 7 5 23
-3 16 -1 32 4 35 6 3 10 -4 10 -17 0 -12 2 -31 5 -42 3 -11 6 -24 6 -29 1 -6
8 -1 16 10 8 10 15 15 15 10 0 -5 7 -3 15 4 9 7 19 10 22 6 4 -4 1 -11 -7 -16
-8 -6 -10 -10 -4 -10 7 0 19 12 29 26 9 15 12 23 6 20 -7 -5 -9 -1 -5 8 3 9 1
16 -6 16 -6 0 -9 -4 -5 -9 3 -5 0 -13 -6 -17 -8 -5 -10 -2 -5 7 4 8 1 6 -7 -4
-10 -12 -17 -15 -22 -7 -5 8 -10 8 -20 0 -9 -8 -14 -7 -18 4 -4 9 -1 18 5 22
7 5 8 2 3 -6 -5 -8 -3 -11 6 -8 8 3 13 14 12 24 -1 10 0 13 3 6 5 -10 9 -10
20 -1 12 10 13 8 7 -7 -6 -17 -5 -17 10 -6 9 8 20 11 26 8 5 -3 12 0 14 6 4
10 6 9 6 -1 1 -11 4 -11 16 -1 13 11 14 10 10 -2 -4 -9 0 -15 10 -15 9 0 14 6
11 12 -2 6 2 12 9 12 7 0 10 -8 7 -19 -3 -13 1 -18 17 -18 14 0 20 4 15 12 -5
7 -2 9 8 5 9 -3 24 0 34 7 15 11 20 11 31 0 7 -7 13 -16 13 -20 0 -5 -5 -3
-12 4 -14 14 -28 16 -28 4 0 -10 50 -37 63 -34 4 1 7 -3 7 -8 0 -6 5 -10 12
-10 6 0 8 3 4 7 -3 4 4 13 16 21 13 8 16 11 5 8 -15 -5 -16 -3 -6 17 15 28 24
37 16 15 -3 -10 -2 -20 3 -23 5 -3 11 4 15 15 3 11 11 20 18 20 8 0 8 -3 -1
-12 -19 -19 -14 -33 6 -16 27 23 42 30 42 19 0 -6 -6 -11 -14 -11 -7 0 -19 -7
-26 -15 -14 -17 0 -21 17 -4 8 8 17 8 31 0 27 -14 29 -14 29 4 0 9 -6 14 -12
11 -6 -2 -12 1 -12 8 0 7 6 13 14 13 7 0 13 -4 13 -9 0 -5 6 -6 13 -1 22 14
36 12 29 -5 -5 -15 -3 -15 11 -4 9 8 20 11 26 8 5 -3 12 0 14 6 4 10 6 9 6 -1
1 -11 4 -11 16 -1 13 11 14 10 10 -2 -4 -9 0 -15 10 -15 9 0 14 6 11 12 -2 6
2 12 9 12 8 0 11 -7 7 -16 -3 -9 -2 -13 3 -9 4 4 14 3 22 -3 9 -8 13 -8 13 -1
0 6 9 16 20 22 14 7 20 7 20 0 0 -5 -7 -10 -15 -10 -8 0 -15 -4 -15 -10 0 -5
8 -7 18 -3 9 3 14 3 10 -1 -11 -13 -78 -16 -78 -4 0 7 -5 6 -15 -2 -8 -7 -15
-9 -15 -4 0 5 -5 2 -11 -6 -9 -13 -10 -13 -6 2 3 9 0 19 -8 22 -9 3 -13 -2
-11 -20 3 -31 15 -42 26 -24 7 12 12 11 29 -5 12 -10 24 -15 28 -12 3 4 1 7
-6 7 -7 0 -10 4 -7 9 8 13 36 7 47 -10 7 -12 9 -12 9 1 0 11 3 11 12 2 7 -7
16 -12 21 -12 5 0 -1 9 -14 20 -13 10 -19 19 -12 20 6 0 15 -5 18 -10 5 -8 12
-7 23 2 13 11 15 10 9 -4 -3 -10 -2 -18 3 -18 6 0 10 5 10 11 0 5 4 8 10 4 5
-3 7 -13 4 -23 -5 -14 -4 -14 4 -2 7 9 7 18 1 26 -7 9 -1 11 23 9 45 -4 47 -6
18 -15 -22 -7 -20 -8 13 -7 20 0 37 4 37 9 0 4 5 8 11 8 5 0 7 -5 4 -10 -3 -6
-1 -10 4 -10 6 0 11 5 11 11 0 5 4 8 9 5 5 -4 7 7 5 23 -3 16 -1 32 4 35 6 3
10 -4 10 -17 0 -12 2 -31 5 -42 3 -11 6 -24 6 -29 1 -6 8 -1 16 10 8 10 15 15
15 10 0 -5 7 -3 15 4 9 7 19 10 22 6 4 -4 1 -11 -7 -16 -8 -6 -10 -10 -4 -10
7 0 19 12 29 26 9 15 12 23 6 20 -7 -5 -9 -1 -5 8 3 9 1 16 -6 16 -6 0 -9 -4
-5 -9 3 -5 0 -13 -6 -17 -8 -5 -10 -2 -5 7 4 8 1 6 -7 -4 -10 -12 -17 -15 -22
-7 -5 8 -10 8 -20 0 -9 -8 -14 -7 -18 4 -4 9 -1 18 5 22 7 5 8 2 3 -6 -5 -8
-3 -11 6 -8 8 3 13 14 12 24 -1 10 0 13 3 6 5 -10 9 -10 20 -1 12 10 13 8 7
-7 -6 -17 -5 -17 10 -6 9 8 20 11 26 8 5 -3 12 0 14 6 4 10 6 9 6 -1 1 -11 4
-11 16 -1 13 11 14 10 10 -2 -4 -9 0 -15 10 -15 9 0 14 6 11 12 -2 6 2 12 9
12 7 0 10 -8 7 -19 -3 -13 1 -18 17 -18 14 0 20 4 15 12 -5 7 -2 9 8 5 9 -3
24 0 34 7 15 11 20 11 31 0 7 -7 13 -16 13 -20 0 -5 -5 -3 -12 4 -14 14 -28
16 -28 4 0 -10 50 -37 63 -34 4 1 7 -3 7 -8 0 -6 5 -10 12 -10 6 0 8 3 4 7 -3
4 4 13 16 21 13 8 16 11 5 8 -15 -5 -16 -3 -6 17 15 28 24 37 16 15 -3 -10 -2
-20 3 -23 5 -3 11 4 15 15 3 11 11 20 18 20 8 0 8 -3 -1 -12 -19 -19 -14 -33
6 -16 27 23 42 30 42 19 0 -6 -6 -11 -14 -11 -7 0 -19 -7 -26 -15 -14 -17 0
-21 17 -4 8 8 17 8 31 0 27 -14 29 -14 29 4 0 9 -6 14 -12 11 -6 -2 -12 1 -12
8 0 7 6 13 14 13 7 0 13 -4 13 -9 0 -5 6 -6 13 -1 22 14 36 12 29 -5 -5 -15
-3 -15 11 -4 9 8 20 11 26 8 5 -3 12 0 14 6 4 10 6 9 6 -1 1 -11 4 -11 16 -1
13 11 14 10 8 -6 -6 -17 -5 -17 10 -6 9 8 20 11 26 8 5 -3 11 -1 13 6 3 7 7 5
11 -6 4 -10 3 -15 -3 -11 -19 12 -10 -12 15 -39 14 -15 25 -21 25 -15 0 10 3
10 12 1 7 -7 16 -12 21 -12 5 0 -1 9 -14 20 -13 10 -19 19 -12 20 6 0 15 -5
18 -10 5 -8 12 -7 23 2 13 11 15 10 9 -4 -3 -10 -2 -18 3 -18 6 0 10 5 10 11
0 5 4 8 10 4 5 -3 7 -13 4 -23 -5 -14 -4 -14 4 -2 7 9 7 18 1 26 -7 9 -1 11
23 9 45 -4 47 -6 18 -15 -22 -7 -20 -8 13 -7 20 0 37 4 37 9 0 4 5 8 11 8 5 0
7 -4 4 -10 -3 -5 -1 -10 4 -10 6 0 11 5 11 11 0 5 4 8 9 5 5 -4 7 7 5 23 -3
16 -1 32 4 35 6 3 10 -4 10 -17 0 -12 2 -31 5 -42 3 -11 6 -24 6 -29 1 -6 8
-1 16 10 8 10 15 15 15 10 0 -5 7 -3 15 4 9 7 19 10 22 6 4 -4 1 -11 -7 -16
-8 -6 -10 -10 -4 -10 7 0 19 12 29 26 9 15 12 23 6 20 -7 -5 -9 -1 -5 8 3 9 1
16 -6 16 -6 0 -9 -4 -5 -9 3 -5 0 -13 -6 -17 -8 -5 -10 -2 -5 7 4 8 1 6 -7 -4
-10 -12 -17 -15 -22 -7 -5 8 -10 8 -20 0 -9 -8 -14 -7 -18 4 -4 9 -1 18 5 22
7 5 8 2 3 -6 -5 -8 -3 -11 6 -8 8 3 13 14 12 24 -1 10 0 13 3 6 5 -10 9 -10
20 -1 12 10 13 8 7 -7 -6 -17 -5 -17 10 -6 9 8 20 11 26 8 5 -3 12 0 14 6 4
10 6 9 6 -1 1 -11 4 -11 16 -1 13 11 14 10 10 -2 -4 -9 0 -15 10 -15 9 0 14 6
11 12 -2 6 2 12 9 12 7 0 10 -8 7 -19 -3 -13 1 -18 17 -18 14 0 20 4 15 12 -5
7 -2 9 8 5 9 -3 24 0 34 7 15 11 20 11 31 0 7 -7 13 -16 13 -20 0 -5 -5 -3
-12 4 -14 14 -28 16 -28 4 0 -10 50 -37 63 -34 4 1 7 -3 7 -8 0 -6 5 -10 12
-10 6 0 8 3 4 7 -3 4 4 13 16 21 13 8 16 11 5 8 -15 -5 -16 -3 -6 17 15 28 24
37 16 15 -3 -10 -2 -20 3 -23 5 -3 11 4 15 15 3 11 11 20 18 20 8 0 8 -3 -1
-12 -19 -19 -14 -33 5 -16 28 23 43 30 43 19 0 -6 -6 -11 -14 -11 -7 0 -19 -7
-26 -15 -14 -17 0 -21 17 -4 8 8 17 8 31 0 27 -14 29 -14 29 4 0 9 -6 14 -12
11 -6 -2 -12 1 -12 8 0 7 6 13 14 13 7 0 13 -4 13 -9 0 -5 6 -6 13 -1 22 14
36 12 29 -5 -5 -15 -3 -15 11 -4 9 8 20 11 26 8 5 -3 12 0 14 6 4 10 6 9 6 -1
1 -11 4 -11 16 -1 13 11 14 10 10 -2 -4 -9 0 -15 10 -15 9 0 14 6 11 12 -2 6
2 12 9 12 8 0 11 -7 7 -16 -3 -9 -2 -13 3 -9 4 4 14 3 22 -3 9 -8 13 -8 13 -1
0 6 9 16 20 22 14 7 20 7 20 0 0 -5 -7 -10 -15 -10 -8 0 -15 -4 -15 -10 0 -5
8 -7 18 -3 9 3 14 3 10 -1 -11 -13 -78 -16 -78 -4 0 7 -5 6 -15 -2 -8 -7 -15
-9 -15 -4 0 5 -5 2 -11 -6 -9 -13 -10 -13 -6 2 3 9 0 19 -8 22 -9 3 -13 -2
-11 -20 3 -31 15 -42 26 -24 7 12 12 11 29 -5 12 -10 24 -15 28 -12 3 4 1 7
-6 7 -7 0 -10 4 -7 9 8 13 36 7 47 -10 7 -12 9 -12 9 1 0 11 3 11 12 2 7 -7
16 -12 21 -12 5 0 -1 9 -14 20 -13 10 -19 19 -12 20 6 0 15 -5 18 -10 5 -8 12
-7 23 2 13 11 15 10 9 -5 -3 -9 -2 -17 3 -17 6 0 10 5 10 11 0 5 4 8 10 4 5
-3 7 -13 4 -23 -5 -14 -4 -14 4 -2 7 9 7 18 1 26 -7 9 -1 11 23 9 45 -4 47 -6
18 -15 -22 -7 -20 -8 13 -7 20 0 37 4 37 9 0 4 5 8 11 8 5 0 7 -4 4 -10 -3 -5
-1 -10 4 -10 6 0 11 5 11 11 0 5 4 8 9 5 5 -4 7 7 5 23 -3 16 -1 32 4 35 6 3
10 -4 10 -17 0 -12 2 -31 5 -42 3 -11 6 -24 6 -29 1 -6 8 -1 16 10 8 10 15 15
15 10 0 -5 7 -3 15 4 9 7 19 10 22 6 4 -4 1 -11 -7 -16 -8 -6 -10 -10 -4 -10
7 0 19 12 29 26 9 15 12 23 6 20 -7 -5 -9 -1 -5 8 3 9 1 16 -6 16 -6 0 -9 -4
-5 -9 3 -5 0 -13 -6 -17 -8 -5 -10 -2 -5 7 4 8 1 6 -7 -4 -10 -12 -17 -15 -22
-7 -5 8 -10 8 -20 0 -9 -8 -14 -7 -18 4 -4 9 -1 18 5 22 7 5 8 2 3 -6 -5 -8
-3 -11 6 -8 8 3 13 14 12 24 -1 10 0 13 3 6 5 -10 9 -10 20 -1 12 10 13 8 7
-7 -6 -17 -5 -17 10 -6 9 8 20 11 26 8 5 -3 12 0 14 6 4 10 6 9 6 -1 1 -11 4
-11 16 -1 13 11 14 10 10 -2 -4 -9 0 -15 10 -15 9 0 14 6 11 12 -2 6 2 12 9
12 7 0 10 -8 7 -19 -3 -13 1 -18 17 -18 14 0 20 4 15 12 -5 7 -2 9 8 5 9 -3
24 0 34 7 15 11 20 11 31 0 7 -7 13 -16 13 -20 0 -5 -5 -3 -12 4 -14 14 -28
16 -28 4 0 -10 50 -37 63 -34 4 1 7 -2 7 -8 0 -5 5 -10 12 -10 6 0 8 3 4 7 -3
4 4 13 16 21 13 8 16 11 5 8 -15 -5 -16 -3 -6 17 15 28 24 37 16 15 -3 -10 -2
-20 3 -23 5 -3 11 4 15 15 3 11 11 20 18 20 8 0 8 -3 -1 -12 -19 -19 -14 -33
6 -16 27 23 42 30 42 19 0 -6 -6 -11 -14 -11 -7 0 -19 -7 -26 -15 -14 -17 0
-21 17 -4 8 8 17 8 31 0 27 -14 29 -14 29 4 0 9 -6 14 -12 11 -6 -2 -12 1 -12
8 0 7 6 13 14 13 7 0 13 -4 13 -9 0 -5 6 -6 13 -1 22 14 36 12 29 -5 -5 -15
-3 -15 11 -4 9 8 20 11 26 8 5 -3 12 0 14 6 4 10 6 9 6 -1 1 -11 4 -11 16 -1
13 11 14 10 8 -6 -6 -17 -5 -17 10 -6 9 8 20 11 26 8 5 -3 11 -1 13 6 3 7 7 5
11 -6 4 -10 3 -15 -3 -11 -19 12 -10 -12 15 -39 14 -15 25 -21 25 -15 0 10 3
10 12 1 7 -7 16 -12 21 -12 5 0 -1 9 -14 20 -13 10 -19 19 -12 20 6 0 15 -5
18 -10 5 -8 12 -7 23 2 13 11 15 10 9 -4 -3 -10 -2 -18 3 -18 6 0 10 5 10 11
0 5 4 8 10 4 5 -3 7 -13 4 -23 -5 -14 -4 -14 4 -2 7 9 7 18 1 26 -7 9 -1 11
23 9 45 -4 47 -6 18 -16 -23 -7 -24 -8 -2 -6 12 1 21 6 20 10 -2 5 5 13 15 18
9 6 15 14 12 20 -4 5 -1 9 4 9 14 0 13 -10 -4 -40 -8 -14 -14 -29 -14 -35 0
-5 6 1 14 15 8 14 14 19 15 13 0 -7 4 -13 10 -13 5 0 6 8 3 18 -6 14 -4 15 9
4 13 -11 18 -11 24 0 5 7 9 16 9 20 0 3 4 10 9 15 5 5 6 2 1 -6 -5 -9 -3 -12
6 -9 8 3 15 10 15 16 1 7 2 17 3 23 0 6 7 9 15 6 7 -3 20 0 27 6 11 10 11 9 0
-5 -7 -9 -9 -23 -5 -29 5 -8 3 -9 -6 -4 -9 5 -11 4 -6 -3 5 -8 1 -10 -11 -6
-15 5 -15 4 -3 -4 8 -6 17 -9 21 -6 4 2 12 -3 19 -11 16 -19 7 -19 -29 0 -26
13 -30 13 -47 -7 -11 -12 -14 -18 -7 -15 6 4 13 4 16 0 2 -5 2 -3 1 4 -2 7 1
15 6 18 6 4 10 1 10 -6 0 -7 3 -9 6 -6 4 3 16 2 26 -4 27 -15 45 3 24 24 -12
12 -13 17 -3 20 8 4 9 6 0 6 -8 1 -7 9 3 31 15 30 37 32 48 3 4 -10 11 -12 19
-7 7 5 4 1 -6 -8 -11 -10 -24 -15 -29 -12 -6 4 -2 -5 7 -20 10 -15 20 -24 23
-22 3 3 -1 12 -8 21 -15 18 1 20 18 3 9 -9 12 -9 12 0 0 7 -5 12 -10 12 -6 0
-6 6 2 14 7 7 22 13 33 12 12 -1 19 4 17 13 -2 9 3 11 15 7 17 -6 17 -5 0 8
-10 8 -14 17 -9 20 5 3 12 2 16 -1 11 -11 36 -12 36 -1 0 6 -7 8 -15 5 -8 -4
-17 -2 -20 3 -4 6 -1 10 4 10 6 0 11 10 11 21 0 17 3 19 14 10 11 -9 16 -9 22
0 4 7 3 9 -3 6 -6 -4 -17 1 -24 10 -12 14 -11 15 11 9 l25 -7 -23 14 c-28 16
-18 30 12 16 21 -10 21 -10 1 6 -17 13 -18 18 -7 36 10 16 10 24 1 35 -9 11
-9 17 1 29 11 13 10 14 -4 9 -17 -7 -17 -7 -21 -42 -2 -18 0 -20 11 -11 10 8
14 8 14 1 0 -17 -20 -25 -34 -13 -14 12 -28 2 -39 -29 -5 -13 -6 -13 -6 1 -1
9 8 24 18 33 19 18 18 44 -2 57 -5 4 0 10 12 14 19 6 31 27 14 24 -27 -4 -33
1 -21 21 16 24 35 33 35 15 0 -8 -5 -13 -10 -12 -5 1 -12 -4 -14 -11 -3 -7 1
-11 9 -10 20 4 37 30 30 47 -3 9 -1 12 6 7 7 -4 12 -2 12 3 0 6 -5 11 -10 11
-6 0 -9 3 -8 8 3 12 -24 62 -34 62 -12 0 -10 -14 4 -28 7 -7 9 -12 4 -12 -4 0
-13 6 -20 13 -11 11 -11 16 0 32 7 10 11 22 8 26 -7 13 6 30 17 24 5 -4 5 -13
-1 -25 -11 -21 13 -50 25 -30 5 8 12 5 21 -7 12 -16 13 -16 8 -1 -5 13 -1 16
15 13 12 -2 19 0 16 5 -3 5 -14 7 -25 5 -31 -6 -51 38 -27 61 10 11 8 24 -4
24 -5 0 -8 -4 -5 -9 3 -5 -1 -14 -9 -21 -12 -10 -15 -10 -15 0 0 9 -7 7 -22
-6 -19 -15 -20 -16 -9 -1 7 9 9 17 4 17 -5 0 -10 6 -10 13 0 8 6 14 13 14 7 0
10 -6 8 -12 -3 -6 2 -12 11 -12 18 0 18 2 4 29 -8 14 -8 23 0 31 17 17 13 31
-4 17 -8 -7 -15 -19 -15 -26 0 -8 -5 -14 -11 -14 -11 0 -4 15 19 43 17 19 3
24 -16 5 -9 -9 -12 -9 -12 -1 0 7 9 15 20 18 11 4 18 10 15 15 -3 5 -13 6 -23
3 -22 -8 -13 1 15 16 20 10 22 9 17 -6 -3 -11 0 -8 8 5 8 12 17 19 21 16 4 -4
7 -2 7 4 0 7 -5 12 -10 12 -6 0 -9 3 -8 8 3 12 -24 62 -34 62 -12 0 -10 -14 4
-28 7 -7 9 -12 4 -12 -4 0 -13 6 -20 13 -11 11 -11 16 -1 31 14 18 9 56 -7 56
-5 0 -2 10 6 21 15 22 11 47 -8 62 -7 5 -3 7 8 5 10 -2 21 3 24 11 3 9 0 11
-8 6 -8 -5 -11 -4 -6 3 4 6 13 9 22 5 10 -4 12 -9 4 -18 -5 -6 -7 -14 -4 -18
3 -3 0 -15 -6 -27 -8 -16 -9 -20 -1 -15 7 4 10 1 9 -7 -2 -7 3 -12 10 -10 14
2 16 -14 3 -23 -6 -3 -14 3 -20 12 -11 21 -24 13 -15 -11 3 -9 11 -13 16 -10
6 4 6 -2 -1 -14 -8 -15 -7 -23 3 -31 10 -9 16 -9 21 -1 5 8 12 5 21 -7 12 -16
13 -16 8 -1 -5 13 -1 16 15 13 12 -2 19 0 16 5 -3 5 -14 7 -25 5 -27 -5 -46
20 -30 40 10 13 9 19 -6 37 -19 21 -19 21 6 7 31 -16 52 -20 44 -8 -3 5 -10 7
-15 4 -5 -4 -12 1 -15 9 -3 9 -10 13 -15 10 -5 -3 -9 2 -9 10 0 18 11 21 26 6
7 -7 11 -6 11 5 0 8 -2 13 -4 11 -2 -2 -15 7 -29 21 -17 17 -30 22 -45 18 -15
-5 -19 -4 -14 4 4 7 23 10 48 7 23 -3 35 -2 27 2 -8 4 -16 15 -18 26 -2 11 1
15 7 11 6 -3 11 -1 11 4 0 6 -4 11 -10 11 -5 0 -9 3 -8 8 3 12 -24 62 -34 62
-12 0 -10 -14 4 -28 7 -7 9 -12 4 -12 -4 0 -13 6 -20 13 -11 11 -11 16 0 32 7
10 11 22 8 26 -7 13 6 30 17 24 5 -4 5 -13 -1 -25 -11 -21 13 -50 25 -30 5 8
12 5 21 -7 12 -16 13 -16 8 -1 -5 13 -1 16 15 13 12 -2 19 0 16 5 -3 5 -14 7
-25 5 -31 -6 -51 38 -27 61 10 11 8 24 -4 24 -5 0 -8 -4 -5 -9 3 -5 -1 -14 -9
-21 -12 -10 -15 -10 -15 0 0 9 -7 7 -22 -6 -19 -15 -20 -16 -9 -2 7 10 9 18 4
18 -5 0 -10 6 -10 13 0 8 6 14 13 14 7 0 10 -6 8 -12 -3 -6 2 -12 11 -12 18 0
18 2 4 29 -8 14 -8 23 0 31 17 17 13 31 -4 17 -8 -7 -15 -19 -15 -26 0 -8 -5
-14 -11 -14 -11 0 -4 15 19 43 17 19 3 24 -16 5 -9 -9 -12 -9 -12 -1 0 7 9 15
20 18 11 4 18 10 15 15 -3 5 -13 6 -23 3 -22 -8 -13 1 15 16 20 10 22 9 17 -6
-3 -11 0 -8 8 5 8 12 17 19 21 16 4 -4 7 -2 7 4 0 7 -4 12 -10 12 -5 0 -9 3
-8 8 3 12 -24 62 -34 62 -12 0 -10 -14 4 -28 7 -7 9 -12 4 -12 -4 0 -13 6 -20
13 -11 11 -11 16 -1 31 14 18 9 56 -7 56 -5 0 -2 10 6 21 15 22 11 47 -8 62
-7 5 -3 7 8 5 10 -2 21 3 24 11 3 9 0 11 -8 6 -8 -5 -11 -4 -6 3 4 6 13 9 22
5 10 -4 12 -9 4 -18 -5 -6 -7 -14 -4 -18 3 -3 0 -15 -6 -27 -8 -16 -9 -20 -1
-15 7 4 10 1 9 -7 -2 -7 3 -12 10 -11 14 3 16 -13 3 -22 -6 -3 -14 3 -20 12
-11 21 -24 13 -15 -11 3 -9 11 -13 16 -10 6 4 6 -2 -1 -14 -8 -15 -7 -23 3
-31 10 -9 16 -9 21 -1 5 8 12 5 21 -7 12 -16 13 -16 8 -1 -5 13 -1 16 15 13
12 -2 19 0 16 5 -3 5 -14 7 -25 5 -27 -5 -46 20 -30 40 10 13 9 19 -6 37 -19
21 -19 21 6 7 31 -16 52 -20 44 -8 -3 5 -10 7 -15 4 -5 -4 -12 1 -15 9 -3 9
-10 13 -15 10 -5 -3 -9 2 -9 10 0 18 11 21 26 6 7 -7 11 -6 11 5 0 8 -2 13 -4
11 -2 -2 -15 7 -29 21 -17 17 -30 22 -45 18 -15 -5 -19 -4 -14 4 4 7 23 10 48
7 23 -3 35 -2 27 2 -8 4 -16 15 -18 26 -2 11 1 15 7 11 6 -3 11 -1 11 4 0 6
-4 11 -10 11 -5 0 -9 3 -8 8 3 12 -24 62 -34 62 -12 0 -10 -14 4 -28 7 -7 9
-12 4 -12 -4 0 -13 6 -20 13 -11 11 -11 16 0 32 7 10 11 22 8 26 -7 13 6 30
17 24 5 -4 5 -13 -1 -25 -11 -21 13 -50 25 -30 5 8 12 5 21 -7 12 -16 13 -16
8 -1 -5 13 -1 16 15 13 12 -2 19 0 16 5 -3 5 -14 7 -25 5 -31 -6 -51 38 -27
61 10 11 8 24 -4 24 -5 0 -8 -4 -5 -9 3 -5 -1 -14 -9 -21 -12 -10 -15 -10 -15
0 0 9 -7 7 -22 -6 -19 -15 -20 -16 -9 -1 7 9 9 17 4 17 -5 0 -10 6 -10 13 0 8
6 14 13 14 7 0 10 -6 8 -12 -3 -6 2 -12 11 -12 18 0 18 2 4 29 -8 14 -8 23 0
31 17 17 13 31 -4 17 -8 -7 -15 -19 -15 -26 0 -8 -5 -14 -11 -14 -11 0 -4 15
19 43 17 19 3 24 -16 5 -9 -9 -12 -9 -12 -1 0 7 9 15 20 18 11 4 18 10 15 15
-3 5 -13 6 -23 3 -22 -8 -13 1 15 16 20 10 22 9 17 -6 -3 -11 0 -8 8 5 8 12
17 19 21 16 4 -4 7 -2 7 4 0 7 -4 12 -10 12 -5 0 -9 3 -8 8 3 12 -24 62 -34
62 -12 0 -10 -14 4 -28 7 -7 9 -12 4 -12 -4 0 -13 6 -20 13 -11 11 -11 16 -1
31 14 18 9 56 -7 56 -5 0 -2 10 6 21 15 22 11 47 -8 62 -7 5 -3 7 8 5 10 -2
21 3 24 11 3 9 0 11 -8 6 -8 -5 -11 -4 -6 3 4 6 13 9 22 5 10 -4 12 -9 4 -18
-5 -6 -7 -14 -4 -18 3 -3 0 -15 -6 -27 -8 -16 -9 -20 -1 -15 7 4 10 1 9 -7 -2
-7 3 -12 10 -11 14 3 16 -13 3 -22 -6 -3 -14 3 -20 12 -11 21 -24 13 -15 -11
3 -9 11 -13 16 -10 6 4 6 -2 -1 -14 -8 -15 -7 -23 3 -31 10 -9 16 -9 21 -1 5
8 12 5 21 -7 12 -16 13 -16 8 -1 -5 13 -1 16 15 13 12 -2 19 0 16 5 -3 5 -14
7 -25 5 -27 -5 -46 20 -30 40 10 13 9 19 -6 37 -19 21 -19 21 6 7 31 -16 52
-20 44 -8 -3 5 -10 7 -15 4 -5 -4 -12 1 -15 9 -3 9 -10 13 -15 10 -5 -3 -9 2
-9 10 0 18 11 21 26 6 7 -7 11 -6 11 5 0 8 -2 13 -4 11 -2 -2 -15 7 -29 21
-17 17 -30 22 -45 18 -15 -5 -19 -4 -14 4 4 7 23 10 48 7 23 -3 35 -2 27 2 -8
4 -16 15 -18 26 -2 11 1 15 7 11 6 -3 11 -1 11 4 0 6 -4 11 -10 11 -5 0 -9 3
-8 8 3 12 -24 62 -34 62 -12 0 -10 -14 4 -28 7 -7 9 -12 4 -12 -4 0 -13 6 -20
13 -11 11 -11 16 0 32 7 10 11 22 8 26 -7 13 6 30 17 24 5 -4 5 -13 -1 -25
-11 -21 13 -50 25 -30 5 8 12 5 21 -7 12 -16 13 -16 8 -1 -5 13 -1 16 15 13
12 -2 19 0 16 5 -3 5 -14 7 -25 5 -31 -6 -51 38 -27 61 10 11 8 24 -4 24 -5 0
-8 -4 -5 -9 3 -5 -1 -14 -9 -21 -12 -10 -15 -10 -15 0 0 9 -7 7 -22 -6 -19
-15 -20 -16 -9 -1 7 9 9 17 4 17 -5 0 -10 6 -10 13 0 8 6 14 13 14 7 0 10 -6
8 -12 -3 -6 2 -12 11 -12 18 0 18 2 4 29 -8 14 -8 23 0 31 17 17 13 31 -4 17
-8 -7 -15 -19 -15 -26 0 -8 -5 -14 -11 -14 -11 0 -4 15 19 43 17 19 3 24 -16
5 -9 -9 -12 -9 -12 -1 0 7 9 15 20 18 11 4 18 10 15 15 -3 5 -13 6 -23 3 -22
-8 -13 1 15 16 20 10 22 9 17 -6 -3 -11 0 -8 8 5 8 12 17 19 21 16 4 -4 7 -2
7 4 0 7 -4 12 -10 12 -5 0 -9 3 -8 8 3 12 -24 62 -34 62 -12 0 -10 -14 4 -28
7 -7 9 -12 4 -12 -4 0 -13 6 -20 13 -11 11 -11 16 -1 31 14 18 9 56 -7 56 -5
0 -2 10 6 21 15 22 11 47 -8 62 -7 5 -3 7 8 5 10 -2 21 3 24 11 3 9 0 11 -8 6
-8 -5 -11 -4 -6 3 4 6 13 9 22 5 10 -4 12 -9 4 -18 -5 -6 -7 -14 -4 -18 3 -3
0 -15 -6 -27 -8 -16 -9 -20 -1 -15 7 4 10 1 9 -7 -2 -7 3 -12 10 -11 14 3 16
-13 3 -22 -6 -3 -14 3 -20 12 -11 21 -24 13 -15 -11 3 -9 11 -13 16 -10 6 4 6
-2 -1 -14 -8 -15 -7 -23 3 -31 10 -9 16 -9 21 -1 5 8 12 5 21 -7 12 -16 13
-16 8 -1 -5 13 -1 16 15 13 12 -2 19 0 16 5 -3 5 -14 7 -25 5 -27 -5 -46 20
-30 40 10 13 9 19 -6 37 -19 21 -19 21 6 7 31 -16 52 -20 44 -8 -3 5 -10 7
-15 4 -5 -4 -12 1 -15 9 -3 9 -10 13 -15 10 -5 -3 -9 2 -9 10 0 18 11 21 26 6
7 -7 11 -6 11 5 0 8 -2 13 -4 11 -2 -2 -15 7 -29 21 -17 17 -30 22 -45 18 -15
-5 -19 -4 -14 4 4 7 23 10 48 7 23 -3 35 -2 27 2 -8 4 -16 15 -18 26 -2 11 1
15 7 11 6 -3 11 -1 11 4 0 6 -4 11 -10 11 -5 0 -9 3 -8 8 3 12 -24 62 -34 62
-12 0 -10 -14 4 -28 7 -7 9 -12 4 -12 -4 0 -13 6 -20 13 -11 11 -11 16 0 32 7
10 11 22 8 26 -7 13 6 30 17 24 5 -4 5 -13 -1 -25 -11 -21 13 -50 25 -30 5 8
12 5 21 -7 12 -16 13 -16 8 -1 -5 13 -1 16 15 13 12 -2 19 0 16 5 -3 5 -14 7
-25 5 -31 -6 -51 38 -27 61 10 11 8 24 -4 24 -5 0 -8 -4 -5 -9 3 -5 -1 -14 -9
-21 -12 -10 -15 -10 -15 0 0 9 -7 7 -22 -6 -19 -15 -20 -16 -9 -1 7 9 9 17 4
17 -5 0 -10 6 -10 13 0 8 6 14 13 14 7 0 10 -6 8 -12 -3 -6 2 -12 11 -12 18 0
18 2 4 29 -8 14 -8 23 0 31 17 17 13 31 -4 17 -8 -7 -15 -19 -15 -26 0 -8 -5
-14 -11 -14 -11 0 -4 15 19 43 17 19 3 24 -16 5 -9 -9 -12 -9 -12 -1 0 7 9 15
20 18 11 4 18 10 15 15 -3 5 -13 6 -23 3 -22 -8 -13 1 15 16 20 10 22 9 17 -6
-3 -11 0 -8 8 5 8 12 17 19 21 16 4 -4 7 -2 7 4 0 7 -4 12 -10 12 -5 0 -9 3
-8 8 3 12 -24 62 -34 62 -12 0 -10 -14 4 -28 7 -7 9 -12 4 -12 -4 0 -13 6 -20
13 -11 11 -11 16 -1 31 14 18 9 56 -7 56 -5 0 -2 10 6 21 15 22 11 47 -8 62
-7 5 -3 7 8 5 10 -2 21 3 24 11 3 9 0 11 -8 6 -8 -5 -11 -4 -6 3 4 6 13 9 22
5 10 -4 12 -9 4 -18 -5 -6 -7 -14 -4 -18 3 -3 0 -15 -6 -27 -8 -16 -9 -20 -1
-15 7 4 10 1 9 -7 -2 -7 3 -12 10 -11 14 3 16 -13 3 -22 -6 -3 -14 3 -20 12
-11 21 -24 13 -15 -11 3 -9 11 -13 16 -10 6 4 6 -2 -1 -14 -8 -15 -7 -23 3
-31 10 -9 16 -9 21 -1 5 8 12 5 21 -7 12 -16 13 -16 8 -1 -5 13 -1 16 15 13
12 -2 19 0 16 5 -3 5 -14 7 -25 5 -27 -5 -46 20 -30 40 10 13 9 19 -6 37 -19
21 -19 21 6 7 31 -16 52 -20 44 -8 -3 5 -10 7 -15 4 -5 -4 -12 1 -15 9 -3 9
-10 13 -15 10 -5 -3 -9 2 -9 10 0 18 11 21 26 6 7 -7 11 -6 11 5 0 8 -2 13 -4
11 -2 -2 -15 7 -29 21 -17 17 -30 22 -45 18 -15 -5 -19 -4 -14 4 4 7 23 10 48
7 23 -3 35 -2 27 2 -8 4 -16 15 -18 26 -2 11 1 15 7 11 6 -3 11 -1 11 4 0 6
-4 11 -10 11 -5 0 -9 3 -8 8 3 12 -24 62 -34 62 -12 0 -10 -14 4 -28 7 -7 9
-12 4 -12 -4 0 -13 6 -20 13 -11 11 -11 16 0 32 7 10 11 22 8 26 -7 13 6 30
17 24 5 -4 5 -13 -1 -25 -11 -21 13 -50 25 -30 5 8 12 5 21 -7 12 -16 13 -16
8 -1 -5 13 -1 16 15 13 12 -2 19 0 16 5 -3 5 -14 7 -25 5 -31 -6 -51 38 -27
61 10 11 8 24 -4 24 -5 0 -8 -4 -5 -9 3 -5 -1 -14 -9 -21 -12 -10 -15 -10 -15
0 0 9 -7 7 -22 -6 -19 -15 -20 -16 -9 -1 7 9 9 17 4 17 -5 0 -10 6 -10 13 0 8
6 14 13 14 7 0 10 -6 8 -12 -3 -6 2 -12 11 -12 18 0 18 2 4 29 -8 14 -8 23 0
31 17 17 13 31 -4 17 -8 -7 -15 -19 -15 -26 0 -8 -5 -14 -11 -14 -11 0 -4 15
19 43 17 19 3 24 -16 5 -9 -9 -12 -9 -12 -1 0 7 9 15 20 18 11 4 18 10 15 15
-3 5 -13 6 -23 3 -22 -8 -13 1 15 16 20 10 22 9 17 -6 -3 -11 0 -8 8 5 8 12
17 19 21 16 4 -4 7 -2 7 4 0 7 -4 12 -10 12 -5 0 -9 3 -8 8 3 12 -24 62 -34
62 -12 0 -10 -14 4 -28 7 -7 9 -12 4 -12 -4 0 -13 6 -20 13 -11 11 -11 16 -1
31 14 18 9 56 -7 56 -5 0 -2 10 6 21 15 22 11 47 -8 62 -7 5 -3 7 8 5 10 -2
21 3 24 11 3 9 0 11 -8 6 -8 -5 -11 -4 -6 3 4 6 13 9 22 5 10 -4 12 -9 4 -18
-5 -6 -7 -14 -4 -18 3 -3 0 -15 -6 -27 -8 -16 -9 -20 -1 -15 7 4 10 1 9 -7 -2
-7 3 -12 10 -11 14 3 16 -13 3 -22 -6 -3 -14 3 -20 12 -11 21 -24 13 -15 -11
3 -9 11 -13 16 -10 6 4 6 -2 -1 -14 -8 -15 -7 -23 3 -31 10 -9 16 -9 21 -1 5
8 12 5 21 -7 12 -16 13 -16 8 -1 -5 13 -1 16 15 13 12 -2 19 0 16 5 -3 5 -14
7 -25 5 -27 -5 -46 20 -30 40 10 13 9 19 -6 37 -19 21 -19 21 6 7 31 -16 52
-20 44 -8 -3 5 -10 7 -15 4 -5 -4 -12 1 -15 9 -3 9 -10 13 -15 10 -5 -3 -9 2
-9 10 0 18 11 21 26 6 7 -7 11 -6 11 5 0 8 -2 13 -4 11 -2 -2 -15 7 -29 21
-17 17 -30 22 -45 18 -15 -5 -19 -4 -14 4 4 7 23 10 48 7 23 -3 35 -2 27 2 -8
4 -16 15 -18 26 -2 11 1 15 7 11 6 -3 11 -1 11 4 0 6 -4 11 -10 11 -5 0 -9 3
-8 8 3 12 -24 62 -34 62 -12 0 -10 -14 4 -28 7 -7 9 -12 4 -12 -4 0 -13 6 -20
13 -11 11 -11 16 0 32 7 10 11 22 8 26 -7 13 6 30 17 24 5 -4 5 -13 -1 -25
-11 -21 13 -50 25 -30 5 8 12 5 21 -7 12 -16 13 -16 8 -1 -5 13 -1 16 15 13
12 -2 19 0 16 5 -3 5 -14 7 -25 5 -31 -6 -51 38 -27 61 10 11 8 24 -4 24 -5 0
-8 -4 -5 -9 3 -5 -1 -14 -9 -21 -12 -10 -15 -10 -15 0 0 9 -7 7 -22 -6 -19
-15 -20 -16 -9 -1 7 9 9 17 4 17 -5 0 -10 6 -10 13 0 8 6 14 13 14 7 0 10 -6
8 -12 -3 -6 2 -12 11 -12 18 0 18 2 4 29 -8 14 -8 23 0 31 17 17 13 31 -4 17
-8 -7 -15 -19 -15 -26 0 -8 -5 -14 -11 -14 -11 0 -4 15 19 43 17 19 3 24 -16
5 -9 -9 -12 -9 -12 -1 0 7 9 15 20 18 11 4 18 10 15 15 -3 5 -13 6 -23 3 -22
-8 -13 1 15 16 20 10 22 9 17 -6 -3 -11 0 -8 8 5 8 12 17 19 21 16 4 -4 7 -2
7 4 0 7 -4 12 -10 12 -5 0 -9 3 -8 8 3 12 -24 62 -34 62 -12 0 -10 -14 4 -28
7 -7 9 -12 4 -12 -4 0 -13 6 -20 13 -11 11 -11 16 0 32 7 10 11 22 8 26 -7 13
6 30 17 24 5 -4 5 -13 -1 -25 -11 -21 13 -50 25 -30 5 8 12 5 21 -7 12 -16 13
-16 8 -1 -5 13 -1 16 15 13 12 -2 19 0 16 5 -3 5 -14 7 -25 5 -27 -5 -46 20
-30 40 10 13 9 19 -6 37 -19 21 -19 21 6 7 31 -16 52 -20 44 -8 -3 5 -10 7
-15 4 -5 -4 -12 1 -15 9 -3 9 -10 13 -15 10 -5 -3 -9 2 -9 11 0 12 4 13 18 6
14 -7 19 -6 19 4 0 7 -7 11 -15 7 -11 -4 -13 -1 -7 8 5 8 4 11 -2 7 -6 -4 -17
1 -24 10 -12 15 -12 16 3 10 12 -4 15 -2 11 9 -4 10 0 13 13 8 15 -5 16 -4 4
4 -8 6 -18 8 -22 6 -4 -3 -8 0 -8 5 0 6 10 11 23 12 l22 1 -22 6 c-17 5 -20
11 -13 22 5 8 10 20 9 25 0 6 -7 -3 -16 -20 -9 -17 -18 -25 -21 -17 -4 14 -22
7 -22 -9 0 -6 4 -8 9 -4 6 3 15 -3 21 -14 9 -17 8 -19 -5 -15 -8 4 -15 1 -15
-6 0 -6 4 -9 8 -6 5 3 9 -1 9 -9 0 -18 -24 -28 -33 -13 -4 7 -3 8 4 4 7 -4 12
-2 12 3 0 6 -5 11 -11 11 -8 0 -9 4 0 13 6 8 7 17 3 21 -4 4 -8 26 -9 49 -3
54 -7 79 -17 95 -4 6 -4 12 1 12 4 0 3 4 -2 8 -6 4 -23 24 -38 44 -15 21 -49
50 -75 65 l-47 28 -2370 2 c-1306 1 -2383 -3 -2399 -7z m4993 -381 c-8 -16 -7
-25 6 -39 10 -11 14 -24 9 -31 -5 -9 -10 -8 -20 5 -8 11 -14 13 -19 7 -3 -6
-12 -11 -18 -11 -7 1 -6 6 4 13 9 7 14 22 12 36 -4 26 14 54 28 45 5 -3 4 -14
-2 -25z m15 -120 c-3 -5 -10 -7 -15 -3 -5 3 -7 10 -3 15 3 5 10 7 15 3 5 -3 7
-10 3 -15z m-9 -72 c1 -12 -14 -27 -27 -27 -5 0 -8 6 -8 14 0 8 -3 16 -7 19
-5 2 -3 2 4 1 7 -2 15 1 19 7 7 12 19 3 19 -14z m9 -248 c-3 -5 -10 -7 -15 -3
-5 3 -7 10 -3 15 3 5 10 7 15 3 5 -3 7 -10 3 -15z m-9 -72 c1 -12 -14 -27 -27
-27 -5 0 -8 6 -8 14 0 8 -3 16 -7 19 -5 2 -3 2 4 1 7 -2 15 1 19 7 7 12 19 3
19 -14z m0 -47 c-3 -5 -13 -6 -21 -3 -12 4 -13 8 -3 14 15 9 32 2 24 -11z m9
-201 c-3 -5 -10 -7 -15 -3 -5 3 -7 10 -3 15 3 5 10 7 15 3 5 -3 7 -10 3 -15z
m-9 -72 c1 -12 -14 -27 -27 -27 -5 0 -8 6 -8 14 0 8 -3 16 -7 19 -5 2 -3 2 4
1 7 -2 15 1 19 7 7 12 19 3 19 -14z m9 -248 c-3 -5 -10 -7 -15 -3 -5 3 -7 10
-3 15 3 5 10 7 15 3 5 -3 7 -10 3 -15z m-9 -72 c1 -12 -14 -27 -27 -27 -5 0
-8 6 -8 14 0 8 -3 16 -7 19 -5 2 -3 2 4 1 7 -2 15 1 19 7 7 12 19 3 19 -14z
m0 -47 c-3 -5 -13 -6 -21 -3 -12 4 -13 8 -3 14 15 9 32 2 24 -11z m9 -201 c-3
-5 -10 -7 -15 -3 -5 3 -7 10 -3 15 3 5 10 7 15 3 5 -3 7 -10 3 -15z m-9 -72
c1 -12 -14 -27 -27 -27 -5 0 -8 6 -8 14 0 8 -3 16 -7 19 -5 2 -3 2 4 1 7 -2
15 1 19 7 7 12 19 3 19 -14z m9 -248 c-3 -5 -10 -7 -15 -3 -5 3 -7 10 -3 15 3
5 10 7 15 3 5 -3 7 -10 3 -15z m-9 -72 c1 -12 -14 -27 -27 -27 -5 0 -8 6 -8
14 0 8 -3 16 -7 19 -5 2 -3 2 4 1 7 -2 15 1 19 7 7 12 19 3 19 -14z m0 -47
c-3 -5 -13 -6 -21 -3 -12 4 -13 8 -3 14 15 9 32 2 24 -11z m9 -201 c-3 -5 -10
-7 -15 -3 -5 3 -7 10 -3 15 3 5 10 7 15 3 5 -3 7 -10 3 -15z m-9 -72 c1 -12
-14 -27 -27 -27 -5 0 -8 6 -8 14 0 8 -3 16 -7 19 -5 2 -3 2 4 1 7 -2 15 1 19
7 7 12 19 3 19 -14z m9 -248 c-3 -5 -10 -7 -15 -3 -5 3 -7 10 -3 15 3 5 10 7
15 3 5 -3 7 -10 3 -15z m-9 -72 c1 -12 -14 -27 -27 -27 -5 0 -8 6 -8 14 0 8
-3 16 -7 19 -5 2 -3 2 4 1 7 -2 15 1 19 7 7 12 19 3 19 -14z m0 -47 c-3 -5
-13 -6 -21 -3 -12 4 -13 8 -3 14 15 9 32 2 24 -11z m9 -201 c-3 -5 -10 -7 -15
-3 -5 3 -7 10 -3 15 3 5 10 7 15 3 5 -3 7 -10 3 -15z m-9 -72 c1 -12 -14 -27
-27 -27 -5 0 -8 6 -8 14 0 8 -3 16 -7 19 -5 2 -3 2 4 1 7 -2 15 1 19 7 7 12
19 3 19 -14z m9 -248 c-3 -5 -10 -7 -15 -3 -5 3 -7 10 -3 15 3 5 10 7 15 3 5
-3 7 -10 3 -15z m-9 -72 c1 -12 -14 -27 -27 -27 -5 0 -8 6 -8 14 0 8 -3 16 -7
19 -5 2 -3 2 4 1 7 -2 15 1 19 7 7 12 19 3 19 -14z m0 -47 c-3 -5 -13 -6 -21
-3 -12 4 -13 8 -3 14 15 9 32 2 24 -11z m9 -201 c-3 -5 -10 -7 -15 -3 -5 3 -7
10 -3 15 3 5 10 7 15 3 5 -3 7 -10 3 -15z m-9 -72 c1 -12 -14 -27 -27 -27 -5
0 -8 6 -8 14 0 8 -3 16 -7 19 -5 2 -3 2 4 1 7 -2 15 1 19 7 7 12 19 3 19 -14z
m9 -248 c-3 -5 -10 -7 -15 -3 -5 3 -7 10 -3 15 3 5 10 7 15 3 5 -3 7 -10 3
-15z m-9 -72 c1 -12 -14 -27 -27 -27 -5 0 -8 6 -8 14 0 8 -3 16 -7 19 -5 2 -3
2 4 1 7 -2 15 1 19 7 7 12 19 3 19 -14z m0 -47 c-3 -5 -13 -6 -21 -3 -12 4
-13 8 -3 14 15 9 32 2 24 -11z m9 -201 c-3 -5 -10 -7 -15 -3 -5 3 -7 10 -3 15
3 5 10 7 15 3 5 -3 7 -10 3 -15z m-9 -72 c1 -12 -14 -27 -27 -27 -5 0 -8 6 -8
14 0 8 -3 16 -7 19 -5 2 -3 2 4 1 7 -2 15 1 19 7 7 12 19 3 19 -14z m9 -248
c-3 -5 -10 -7 -15 -3 -5 3 -7 10 -3 15 3 5 10 7 15 3 5 -3 7 -10 3 -15z m-9
-72 c1 -12 -14 -27 -27 -27 -5 0 -8 6 -8 14 0 8 -3 16 -7 19 -5 2 -3 2 4 1 7
-2 15 1 19 7 7 12 19 3 19 -14z m-8 -211 c-3 -6 -10 -10 -16 -8 -6 1 -11 -2
-11 -8 0 -5 6 -10 13 -11 8 0 8 -2 -2 -6 -11 -5 -11 -7 0 -14 10 -6 10 -9 2
-9 -7 0 -10 -6 -7 -14 7 -18 -43 -57 -62 -49 -12 4 -13 8 -3 13 7 5 19 5 28 2
14 -5 14 -3 2 11 -10 12 -18 14 -32 7 -15 -8 -17 -7 -13 4 3 9 11 14 17 13 7
-1 11 6 11 15 -1 10 3 15 9 11 6 -4 8 0 4 11 -4 9 -3 14 2 11 9 -5 24 10 27
28 1 4 2 9 3 12 0 2 8 2 16 -2 9 -3 14 -11 12 -17z m-107 -110 c0 -2 -7 -7
-16 -10 -8 -3 -12 -2 -9 4 6 10 25 14 25 6z m57 -32 c0 -13 -15 -13 -34 -1 -7
5 -17 5 -23 2 -5 -3 -10 -2 -10 3 0 6 15 10 33 9 19 0 34 -6 34 -13z m-4277
-34 c0 -5 -7 -10 -15 -10 -8 0 -15 -4 -15 -8 0 -16 40 -7 46 10 7 24 21 23 29
-2 6 -19 6 -19 43 0 37 20 37 20 46 0 5 -11 13 -20 18 -20 5 0 6 5 3 10 -3 6
-1 10 4 10 15 0 14 -12 -2 -34 -12 -16 -14 -16 -32 5 -11 12 -14 19 -7 15 6
-4 12 -2 12 3 0 6 -9 11 -20 11 -11 0 -19 -5 -17 -11 1 -6 -10 -13 -25 -14
-19 -3 -28 1 -28 11 0 8 -5 14 -11 14 -6 0 -9 -6 -6 -14 8 -19 -3 -28 -19 -15
-16 13 -37 2 -27 -14 4 -7 0 -6 -10 2 -22 18 -7 48 31 60 1 1 2 -3 2 -9z m80
6 c0 -3 -4 -8 -10 -11 -5 -3 -10 -1 -10 4 0 6 5 11 10 11 6 0 10 -2 10 -4z
m476 -16 c8 0 14 -3 14 -7 0 -15 -15 -29 -27 -27 -26 3 -27 4 -16 15 6 6 10
17 9 23 -2 6 -1 8 1 4 3 -5 11 -8 19 -8z m449 0 c6 -19 6 -19 43 0 37 20 37
20 46 0 5 -11 13 -20 18 -20 5 0 6 5 3 10 -3 6 -1 10 4 10 15 0 14 -12 -2 -34
-12 -16 -14 -16 -32 5 -11 12 -14 19 -7 15 6 -4 12 -2 12 3 0 6 -9 11 -20 11
-11 0 -19 -5 -17 -11 1 -6 -10 -13 -25 -14 -19 -3 -28 1 -28 11 0 8 -5 14 -10
14 -6 0 -10 -6 -8 -12 2 -7 0 -14 -5 -15 -8 -3 -9 5 -1 30 7 23 21 22 29 -3z
m35 16 c0 -3 -4 -8 -10 -11 -5 -3 -10 -1 -10 4 0 6 5 11 10 11 6 0 10 -2 10
-4z m476 -16 c8 0 14 -3 14 -7 0 -15 -15 -29 -27 -27 -26 3 -27 4 -16 15 6 6
10 17 9 23 -2 6 -1 8 1 4 3 -5 11 -8 19 -8z m404 10 c0 -5 -7 -10 -15 -10 -8
0 -15 -4 -15 -8 0 -16 40 -7 46 10 7 24 21 23 29 -2 6 -19 6 -19 43 0 37 20
37 20 46 0 5 -11 13 -20 18 -20 5 0 6 5 3 10 -3 6 -1 10 4 10 15 0 14 -12 -2
-34 -12 -16 -14 -16 -32 5 -11 12 -14 19 -7 15 6 -4 12 -2 12 3 0 6 -9 11 -20
11 -11 0 -19 -5 -17 -11 1 -6 -10 -13 -25 -14 -19 -3 -28 1 -28 11 0 8 -5 14
-11 14 -6 0 -9 -6 -6 -14 8 -19 -3 -28 -19 -15 -16 13 -37 2 -27 -14 4 -7 0
-6 -10 2 -22 18 -7 48 31 60 1 1 2 -3 2 -9z m80 6 c0 -3 -4 -8 -10 -11 -5 -3
-10 -1 -10 4 0 6 5 11 10 11 6 0 10 -2 10 -4z m476 -16 c8 0 14 -3 14 -7 0
-15 -15 -29 -27 -27 -26 3 -27 4 -16 15 6 6 10 17 9 23 -2 6 -1 8 1 4 3 -5 11
-8 19 -8z m449 0 c6 -19 6 -19 43 0 37 20 37 20 46 0 5 -11 13 -20 18 -20 5 0
6 5 3 10 -3 6 -1 10 4 10 15 0 14 -12 -2 -34 -12 -16 -14 -16 -32 5 -11 12
-14 19 -7 15 6 -4 12 -2 12 3 0 6 -9 11 -20 11 -11 0 -19 -5 -17 -11 1 -6 -10
-13 -25 -14 -19 -3 -28 1 -28 11 0 8 -5 14 -10 14 -6 0 -10 -6 -8 -12 2 -7 0
-14 -5 -15 -8 -3 -9 5 -1 30 7 23 21 22 29 -3z m35 16 c0 -3 -4 -8 -10 -11 -5
-3 -10 -1 -10 4 0 6 5 11 10 11 6 0 10 -2 10 -4z m476 -16 c8 0 14 -3 14 -7 0
-15 -15 -29 -27 -27 -26 3 -27 4 -16 15 6 6 10 17 9 23 -2 6 -1 8 1 4 3 -5 11
-8 19 -8z m404 10 c0 -5 -7 -10 -15 -10 -8 0 -15 -4 -15 -8 0 -16 40 -7 46 10
7 24 21 23 29 -2 6 -19 6 -19 43 0 33 18 37 18 45 4 11 -20 -7 -42 -18 -23 -5
8 -4 10 3 5 7 -4 12 -2 12 3 0 6 -9 11 -20 11 -11 0 -19 -5 -17 -11 1 -6 -10
-13 -25 -14 -19 -3 -28 1 -28 11 0 8 -5 14 -11 14 -6 0 -9 -6 -6 -14 8 -19 -3
-28 -19 -15 -16 13 -37 2 -27 -14 4 -7 0 -6 -10 2 -22 18 -7 48 31 60 1 1 2
-3 2 -9z m80 6 c0 -3 -4 -8 -10 -11 -5 -3 -10 -1 -10 4 0 6 5 11 10 11 6 0 10
-2 10 -4z m134 -7 c4 6 12 11 19 11 6 0 3 -6 -8 -13 -10 -8 -15 -19 -11 -25 3
-6 2 -13 -3 -16 -5 -4 -12 -2 -16 4 -4 6 -11 8 -16 5 -5 -4 -4 5 3 20 7 16 14
21 18 14 6 -8 9 -8 14 0z m-3860 -41 c-9 -14 -23 2 -17 18 4 12 8 13 14 3 4
-7 5 -17 3 -21z m960 0 c-9 -14 -23 2 -17 18 4 12 8 13 14 3 4 -7 5 -17 3 -21z
m960 0 c-9 -14 -23 2 -17 18 4 12 8 13 14 3 4 -7 5 -17 3 -21z m960 0 c-9 -14
-23 2 -17 18 4 12 8 13 14 3 4 -7 5 -17 3 -21z m-3610 14 c3 -5 -1 -9 -9 -9
-8 0 -12 4 -9 9 3 4 7 8 9 8 2 0 6 -4 9 -8z m802 -24 c4 -7 4 -10 -1 -6 -4 4
-15 2 -24 -5 -14 -11 -14 -10 -2 6 16 20 18 21 27 5z m614 2 c0 -5 -2 -10 -4
-10 -3 0 -8 5 -11 10 -3 6 -1 10 4 10 6 0 11 -4 11 -10z m346 -2 c4 -7 4 -10
-1 -6 -4 4 -15 2 -24 -5 -14 -11 -14 -10 -2 6 16 20 18 21 27 5z m960 0 c4 -7
4 -10 -1 -6 -4 4 -15 2 -24 -5 -14 -11 -14 -10 -2 6 16 20 18 21 27 5z m614 2
c0 -5 -2 -10 -4 -10 -3 0 -8 5 -11 10 -3 6 -1 10 4 10 6 0 11 -4 11 -10z m346
-2 c4 -7 4 -10 -1 -6 -4 4 -15 2 -24 -5 -14 -11 -14 -10 -2 6 16 20 18 21 27
5z"/>
<path d="M5325 5069 c-4 -6 -5 -12 -2 -15 2 -3 7 2 10 11 7 17 1 20 -8 4z"/>
<path d="M5320 5026 c0 -2 8 -10 18 -17 15 -13 16 -12 3 4 -13 16 -21 21 -21
13z"/>
<path d="M5325 4869 c-4 -6 -5 -12 -2 -15 2 -3 7 2 10 11 7 17 1 20 -8 4z"/>
<path d="M5325 4549 c-4 -6 -5 -12 -2 -15 2 -3 7 2 10 11 7 17 1 20 -8 4z"/>
<path d="M5325 4229 c-4 -6 -5 -12 -2 -15 2 -3 7 2 10 11 7 17 1 20 -8 4z"/>
<path d="M5325 3909 c-4 -6 -5 -12 -2 -15 2 -3 7 2 10 11 7 17 1 20 -8 4z"/>
<path d="M5325 3589 c-4 -6 -5 -12 -2 -15 2 -3 7 2 10 11 7 17 1 20 -8 4z"/>
<path d="M5325 3269 c-4 -6 -5 -12 -2 -15 2 -3 7 2 10 11 7 17 1 20 -8 4z"/>
<path d="M5325 2949 c-4 -6 -5 -12 -2 -15 2 -3 7 2 10 11 7 17 1 20 -8 4z"/>
<path d="M5325 2629 c-4 -6 -5 -12 -2 -15 2 -3 7 2 10 11 7 17 1 20 -8 4z"/>
<path d="M5325 2309 c-4 -6 -5 -12 -2 -15 2 -3 7 2 10 11 7 17 1 20 -8 4z"/>
<path d="M5325 1989 c-4 -6 -5 -12 -2 -15 2 -3 7 2 10 11 7 17 1 20 -8 4z"/>
<path d="M5325 1669 c-4 -6 -5 -12 -2 -15 2 -3 7 2 10 11 7 17 1 20 -8 4z"/>
<path d="M5325 1349 c-4 -6 -5 -12 -2 -15 2 -3 7 2 10 11 7 17 1 20 -8 4z"/>
<path d="M5325 1029 c-4 -6 -5 -12 -2 -15 2 -3 7 2 10 11 7 17 1 20 -8 4z"/>
<path d="M5325 709 c-4 -6 -5 -12 -2 -15 2 -3 7 2 10 11 7 17 1 20 -8 4z"/>
<path d="M5282 446 c-8 -19 -8 -27 2 -35 13 -11 26 -5 26 12 0 5 -8 6 -17 3
-16 -5 -16 -4 -3 7 17 14 24 37 12 37 -5 0 -14 -11 -20 -24z"/>
<path d="M1545 290 c-3 -6 1 -7 9 -4 18 7 21 14 7 14 -6 0 -13 -4 -16 -10z"/>
<path d="M2505 290 c-3 -6 1 -7 9 -4 18 7 21 14 7 14 -6 0 -13 -4 -16 -10z"/>
<path d="M3465 290 c-3 -6 1 -7 9 -4 18 7 21 14 7 14 -6 0 -13 -4 -16 -10z"/>
<path d="M4425 290 c-3 -6 1 -7 9 -4 18 7 21 14 7 14 -6 0 -13 -4 -16 -10z"/>
<path d="M5040 301 c0 -6 4 -13 10 -16 6 -3 7 1 4 9 -7 18 -14 21 -14 7z"/>
<path d="M5316 5293 c-6 -14 -5 -15 5 -6 7 7 10 15 7 18 -3 3 -9 -2 -12 -12z"/>
<path d="M5296 5253 c4 -10 7 -30 8 -45 0 -22 3 -25 18 -17 10 5 18 15 17 22
0 9 -2 9 -6 0 -8 -22 -20 -14 -18 12 2 14 -1 25 -6 25 -6 0 -7 5 -4 10 3 6 1
10 -5 10 -8 0 -9 -6 -4 -17z"/>
<path d="M5353 5235 c0 -8 4 -12 9 -9 5 3 6 10 3 15 -9 13 -12 11 -12 -6z"/>
<path d="M5370 5200 c0 -5 5 -10 11 -10 5 0 7 5 4 10 -3 6 -8 10 -11 10 -2 0
-4 -4 -4 -10z"/>
<path d="M5376 5098 c3 -5 10 -6 15 -3 13 9 11 12 -6 12 -8 0 -12 -4 -9 -9z"/>
<path d="M5375 4979 c-4 -6 -4 -13 -1 -16 3 -4 6 -1 6 6 0 7 5 9 10 6 6 -3 10
-1 10 4 0 14 -17 14 -25 0z"/>
<path d="M5365 4894 c11 -8 19 -18 18 -22 -1 -4 0 -9 2 -10 2 -2 3 2 1 10 -3
21 -16 38 -29 38 -7 0 -3 -7 8 -16z"/>
<path d="M5342 4809 c-9 -13 -7 -19 4 -23 21 -8 24 -8 24 5 0 5 -4 7 -10 4 -5
-3 -10 -2 -10 3 0 5 10 14 23 20 22 10 22 10 1 9 -12 -1 -27 -9 -32 -18z"/>
<path d="M5380 4806 c0 -2 8 -10 18 -17 15 -13 16 -12 3 4 -13 16 -21 21 -21
13z"/>
<path d="M5340 4755 c-13 -15 -5 -39 11 -30 5 4 15 3 22 -2 18 -11 38 -13 31
-2 -3 5 -9 7 -13 4 -11 -6 -43 30 -34 38 3 4 4 7 1 7 -3 0 -11 -7 -18 -15z"/>
<path d="M5374 4675 c-3 -8 -4 -20 -1 -27 3 -7 6 -3 6 9 1 16 6 21 16 17 8 -4
15 -4 15 -1 0 13 -31 15 -36 2z"/>
<path d="M5365 4574 c11 -8 19 -18 18 -22 -1 -4 0 -9 2 -10 2 -2 3 2 1 10 -3
21 -16 38 -29 38 -7 0 -3 -7 8 -16z"/>
<path d="M5370 4506 c0 -2 7 -7 16 -10 8 -3 12 -2 9 4 -6 10 -25 14 -25 6z"/>
<path d="M5375 4460 c3 -5 8 -10 11 -10 2 0 4 5 4 10 0 6 -5 10 -11 10 -5 0
-7 -4 -4 -10z"/>
<path d="M5416 4442 c-3 -5 1 -9 9 -9 8 0 12 4 9 9 -3 4 -7 8 -9 8 -2 0 -6 -4
-9 -8z"/>
<path d="M5374 4338 c-4 -5 -3 -12 0 -15 3 -4 6 -1 6 6 0 7 4 10 9 6 5 -3 12
-2 15 3 3 5 -2 9 -10 9 -8 0 -17 -4 -20 -9z"/>
<path d="M5365 4254 c11 -8 19 -18 18 -22 -1 -4 0 -9 2 -10 2 -2 3 2 1 10 -3
21 -16 38 -29 38 -7 0 -3 -7 8 -16z"/>
<path d="M5342 4169 c-9 -13 -7 -19 4 -23 21 -8 24 -8 24 5 0 5 -4 7 -10 4 -5
-3 -10 -2 -10 3 0 5 10 14 23 20 22 10 22 10 1 9 -12 -1 -27 -9 -32 -18z"/>
<path d="M5380 4166 c0 -2 8 -10 18 -17 15 -13 16 -12 3 4 -13 16 -21 21 -21
13z"/>
<path d="M5340 4115 c-13 -15 -5 -39 11 -30 5 4 15 3 22 -2 18 -11 38 -13 31
-2 -3 5 -9 7 -13 4 -11 -6 -43 30 -34 38 3 4 4 7 1 7 -3 0 -11 -7 -18 -15z"/>
<path d="M5374 4035 c-3 -8 -4 -20 -1 -27 3 -7 6 -3 6 9 1 16 6 21 16 17 8 -4
15 -4 15 -1 0 13 -31 15 -36 2z"/>
<path d="M5365 3934 c11 -8 19 -18 18 -22 -1 -4 0 -9 2 -10 2 -2 3 2 1 10 -3
21 -16 38 -29 38 -7 0 -3 -7 8 -16z"/>
<path d="M5370 3866 c0 -2 7 -7 16 -10 8 -3 12 -2 9 4 -6 10 -25 14 -25 6z"/>
<path d="M5375 3820 c3 -5 8 -10 11 -10 2 0 4 5 4 10 0 6 -5 10 -11 10 -5 0
-7 -4 -4 -10z"/>
<path d="M5416 3802 c-3 -5 1 -9 9 -9 8 0 12 4 9 9 -3 4 -7 8 -9 8 -2 0 -6 -4
-9 -8z"/>
<path d="M5374 3698 c-4 -5 -3 -12 0 -15 3 -4 6 -1 6 6 0 7 4 10 9 6 5 -3 12
-2 15 3 3 5 -2 9 -10 9 -8 0 -17 -4 -20 -9z"/>
<path d="M5365 3614 c11 -8 19 -18 18 -22 -1 -4 0 -9 2 -10 2 -2 3 2 1 10 -3
21 -16 38 -29 38 -7 0 -3 -7 8 -16z"/>
<path d="M5342 3529 c-9 -13 -7 -19 4 -23 21 -8 24 -8 24 5 0 5 -4 7 -10 4 -5
-3 -10 -2 -10 3 0 5 10 14 23 20 22 10 22 10 1 9 -12 -1 -27 -9 -32 -18z"/>
<path d="M5380 3526 c0 -2 8 -10 18 -17 15 -13 16 -12 3 4 -13 16 -21 21 -21
13z"/>
<path d="M5340 3475 c-13 -15 -5 -39 11 -30 5 4 15 3 22 -2 18 -11 38 -13 31
-2 -3 5 -9 7 -13 4 -11 -6 -43 30 -34 38 3 4 4 7 1 7 -3 0 -11 -7 -18 -15z"/>
<path d="M5374 3395 c-3 -8 -4 -20 -1 -27 3 -7 6 -3 6 9 1 16 6 21 16 17 8 -4
15 -4 15 -1 0 13 -31 15 -36 2z"/>
<path d="M5365 3294 c11 -8 19 -18 18 -22 -1 -4 0 -9 2 -10 2 -2 3 2 1 10 -3
21 -16 38 -29 38 -7 0 -3 -7 8 -16z"/>
<path d="M5370 3226 c0 -2 7 -7 16 -10 8 -3 12 -2 9 4 -6 10 -25 14 -25 6z"/>
<path d="M5375 3180 c3 -5 8 -10 11 -10 2 0 4 5 4 10 0 6 -5 10 -11 10 -5 0
-7 -4 -4 -10z"/>
<path d="M5416 3162 c-3 -5 1 -9 9 -9 8 0 12 4 9 9 -3 4 -7 8 -9 8 -2 0 -6 -4
-9 -8z"/>
<path d="M5374 3058 c-4 -5 -3 -12 0 -15 3 -4 6 -1 6 6 0 7 4 10 9 6 5 -3 12
-2 15 3 3 5 -2 9 -10 9 -8 0 -17 -4 -20 -9z"/>
<path d="M5365 2974 c11 -8 19 -18 18 -22 -1 -4 0 -9 2 -10 2 -2 3 2 1 10 -3
21 -16 38 -29 38 -7 0 -3 -7 8 -16z"/>
<path d="M5342 2889 c-9 -13 -7 -19 4 -23 21 -8 24 -8 24 5 0 5 -4 7 -10 4 -5
-3 -10 -2 -10 3 0 5 10 14 23 20 22 10 22 10 1 9 -12 -1 -27 -9 -32 -18z"/>
<path d="M5380 2886 c0 -2 8 -10 18 -17 15 -13 16 -12 3 4 -13 16 -21 21 -21
13z"/>
<path d="M5340 2835 c-13 -15 -5 -39 11 -30 5 4 15 3 22 -2 18 -11 38 -13 31
-2 -3 5 -9 7 -13 4 -11 -6 -43 30 -34 38 3 4 4 7 1 7 -3 0 -11 -7 -18 -15z"/>
<path d="M5374 2755 c-3 -8 -4 -20 -1 -27 3 -7 6 -3 6 9 1 16 6 21 16 17 8 -4
15 -4 15 -1 0 13 -31 15 -36 2z"/>
<path d="M5365 2654 c11 -8 19 -18 18 -22 -1 -4 0 -9 2 -10 2 -2 3 2 1 10 -3
21 -16 38 -29 38 -7 0 -3 -7 8 -16z"/>
<path d="M5370 2586 c0 -2 7 -7 16 -10 8 -3 12 -2 9 4 -6 10 -25 14 -25 6z"/>
<path d="M5375 2540 c3 -5 8 -10 11 -10 2 0 4 5 4 10 0 6 -5 10 -11 10 -5 0
-7 -4 -4 -10z"/>
<path d="M5416 2522 c-3 -5 1 -9 9 -9 8 0 12 4 9 9 -3 4 -7 8 -9 8 -2 0 -6 -4
-9 -8z"/>
<path d="M5374 2418 c-4 -5 -3 -12 0 -15 3 -4 6 -1 6 6 0 7 4 10 9 6 5 -3 12
-2 15 3 3 5 -2 9 -10 9 -8 0 -17 -4 -20 -9z"/>
<path d="M5365 2334 c11 -8 19 -18 18 -22 -1 -4 0 -9 2 -10 2 -2 3 2 1 10 -3
21 -16 38 -29 38 -7 0 -3 -7 8 -16z"/>
<path d="M5342 2249 c-9 -13 -7 -19 4 -23 21 -8 24 -8 24 5 0 5 -4 7 -10 4 -5
-3 -10 -2 -10 3 0 5 10 14 23 20 22 10 22 10 1 9 -12 -1 -27 -9 -32 -18z"/>
<path d="M5380 2246 c0 -2 8 -10 18 -17 15 -13 16 -12 3 4 -13 16 -21 21 -21
13z"/>
<path d="M5340 2195 c-13 -15 -5 -39 11 -30 5 4 15 3 22 -2 18 -11 38 -13 31
-2 -3 5 -9 7 -13 4 -11 -6 -43 30 -34 38 3 4 4 7 1 7 -3 0 -11 -7 -18 -15z"/>
<path d="M5374 2115 c-3 -8 -4 -20 -1 -27 3 -7 6 -3 6 9 1 16 6 21 16 17 8 -4
15 -4 15 -1 0 13 -31 15 -36 2z"/>
<path d="M5365 2014 c11 -8 19 -18 18 -22 -1 -4 0 -9 2 -10 2 -2 3 2 1 10 -3
21 -16 38 -29 38 -7 0 -3 -7 8 -16z"/>
<path d="M5370 1946 c0 -2 7 -7 16 -10 8 -3 12 -2 9 4 -6 10 -25 14 -25 6z"/>
<path d="M5375 1900 c3 -5 8 -10 11 -10 2 0 4 5 4 10 0 6 -5 10 -11 10 -5 0
-7 -4 -4 -10z"/>
<path d="M5416 1882 c-3 -5 1 -9 9 -9 8 0 12 4 9 9 -3 4 -7 8 -9 8 -2 0 -6 -4
-9 -8z"/>
<path d="M5374 1778 c-4 -5 -3 -12 0 -15 3 -4 6 -1 6 6 0 7 4 10 9 6 5 -3 12
-2 15 3 3 5 -2 9 -10 9 -8 0 -17 -4 -20 -9z"/>
<path d="M5365 1694 c11 -8 19 -18 18 -22 -1 -4 0 -9 2 -10 2 -2 3 2 1 10 -3
21 -16 38 -29 38 -7 0 -3 -7 8 -16z"/>
<path d="M5342 1609 c-9 -13 -7 -19 4 -23 21 -8 24 -8 24 5 0 5 -4 7 -10 4 -5
-3 -10 -2 -10 3 0 5 10 14 23 20 22 10 22 10 1 9 -12 -1 -27 -9 -32 -18z"/>
<path d="M5380 1606 c0 -2 8 -10 18 -17 15 -13 16 -12 3 4 -13 16 -21 21 -21
13z"/>
<path d="M5340 1555 c-13 -15 -5 -39 11 -30 5 4 15 3 22 -2 18 -11 38 -13 31
-2 -3 5 -9 7 -13 4 -11 -6 -43 30 -34 38 3 4 4 7 1 7 -3 0 -11 -7 -18 -15z"/>
<path d="M5374 1475 c-3 -8 -4 -20 -1 -27 3 -7 6 -3 6 9 1 16 6 21 16 17 8 -4
15 -4 15 -1 0 13 -31 15 -36 2z"/>
<path d="M5365 1374 c11 -8 19 -18 18 -22 -1 -4 0 -9 2 -10 2 -2 3 2 1 10 -3
21 -16 38 -29 38 -7 0 -3 -7 8 -16z"/>
<path d="M5370 1306 c0 -2 7 -7 16 -10 8 -3 12 -2 9 4 -6 10 -25 14 -25 6z"/>
<path d="M5375 1260 c3 -5 8 -10 11 -10 2 0 4 5 4 10 0 6 -5 10 -11 10 -5 0
-7 -4 -4 -10z"/>
<path d="M5416 1242 c-3 -5 1 -9 9 -9 8 0 12 4 9 9 -3 4 -7 8 -9 8 -2 0 -6 -4
-9 -8z"/>
<path d="M5374 1138 c-4 -5 -3 -12 0 -15 3 -4 6 -1 6 6 0 7 4 10 9 6 5 -3 12
-2 15 3 3 5 -2 9 -10 9 -8 0 -17 -4 -20 -9z"/>
<path d="M5365 1054 c11 -8 19 -18 18 -22 -1 -4 0 -9 2 -10 2 -2 3 2 1 10 -3
21 -16 38 -29 38 -7 0 -3 -7 8 -16z"/>
<path d="M5342 969 c-9 -13 -7 -19 4 -23 21 -8 24 -8 24 5 0 5 -4 7 -10 4 -5
-3 -10 -2 -10 3 0 5 10 14 23 20 22 10 22 10 1 9 -12 -1 -27 -9 -32 -18z"/>
<path d="M5380 966 c0 -2 8 -10 18 -17 15 -13 16 -12 3 4 -13 16 -21 21 -21
13z"/>
<path d="M5340 915 c-13 -15 -5 -39 11 -30 5 4 15 3 22 -2 18 -11 38 -13 31
-2 -3 5 -9 7 -13 4 -11 -6 -43 30 -34 38 3 4 4 7 1 7 -3 0 -11 -7 -18 -15z"/>
<path d="M5374 835 c-3 -8 -4 -20 -1 -27 3 -7 6 -3 6 9 1 16 6 21 16 17 8 -4
15 -4 15 -1 0 13 -31 15 -36 2z"/>
<path d="M5365 734 c11 -8 19 -18 18 -22 -1 -4 0 -9 2 -10 2 -2 3 2 1 10 -3
21 -16 38 -29 38 -7 0 -3 -7 8 -16z"/>
<path d="M5339 621 c-14 -16 -23 -35 -19 -41 5 -7 9 -4 13 10 4 17 11 21 30
18 15 -3 24 0 24 9 0 9 -8 11 -21 8 -21 -6 -21 -6 -2 9 11 9 15 16 10 16 -5 0
-21 -13 -35 -29z"/>
<path d="M5374 579 c-3 -6 -1 -16 5 -22 9 -9 10 -7 5 7 -6 15 -4 17 6 11 9 -5
11 -4 6 3 -9 15 -13 15 -22 1z"/>
<path d="M5390 519 c0 -5 5 -7 10 -4 6 3 10 8 10 11 0 2 -4 4 -10 4 -5 0 -10
-5 -10 -11z"/>
<path d="M5177 339 c-5 -20 16 -79 29 -79 2 0 -2 14 -11 30 -14 28 -13 34 8
31 12 -2 8 16 -7 28 -11 9 -15 7 -19 -10z"/>
<path d="M5115 320 c-3 -5 -1 -10 4 -10 6 0 11 5 11 10 0 6 -2 10 -4 10 -3 0
-8 -4 -11 -10z"/>
<path d="M781 306 c-11 -13 -11 -16 -1 -16 10 0 10 -3 0 -15 -7 -8 -16 -12
-21 -9 -5 3 -9 0 -9 -5 0 -12 13 -15 23 -4 11 10 57 13 57 3 0 -5 -6 -11 -12
-13 -10 -4 -10 -6 0 -6 7 -1 15 6 18 14 4 8 10 13 15 10 8 -6 4 34 -5 43 -3 3
-12 -1 -20 -7 -11 -10 -16 -9 -23 4 -9 15 -11 15 -22 1z m29 -27 c0 -5 -4 -9
-8 -9 -5 0 -9 7 -9 15 0 8 4 12 9 9 4 -3 8 -9 8 -15z m34 0 c-3 -5 -10 -7 -15
-3 -5 3 -7 10 -3 15 3 5 10 7 15 3 5 -3 7 -10 3 -15z"/>
<path d="M1741 306 c-11 -13 -11 -16 -1 -16 10 0 10 -3 0 -15 -7 -8 -16 -12
-21 -9 -5 3 -9 0 -9 -5 0 -12 13 -15 23 -4 11 10 57 13 57 3 0 -5 -6 -11 -12
-13 -8 -4 -9 -6 -2 -6 18 -1 44 44 34 59 -7 11 -11 11 -23 1 -13 -10 -17 -9
-24 4 -9 15 -11 15 -22 1z m29 -27 c0 -5 -4 -9 -8 -9 -5 0 -9 7 -9 15 0 8 4
12 9 9 4 -3 8 -9 8 -15z m34 0 c-3 -5 -10 -7 -15 -3 -5 3 -7 10 -3 15 3 5 10
7 15 3 5 -3 7 -10 3 -15z"/>
<path d="M2701 306 c-11 -13 -11 -16 -1 -16 10 0 10 -3 0 -15 -7 -8 -16 -12
-21 -9 -5 3 -9 0 -9 -5 0 -12 13 -15 23 -4 11 10 57 13 57 3 0 -5 -6 -11 -12
-13 -10 -4 -10 -6 0 -6 7 -1 15 6 18 14 4 8 10 13 15 10 8 -6 4 34 -5 43 -3 3
-12 -1 -20 -7 -11 -10 -16 -9 -23 4 -9 15 -11 15 -22 1z m29 -27 c0 -5 -4 -9
-8 -9 -5 0 -9 7 -9 15 0 8 4 12 9 9 4 -3 8 -9 8 -15z m34 0 c-3 -5 -10 -7 -15
-3 -5 3 -7 10 -3 15 3 5 10 7 15 3 5 -3 7 -10 3 -15z"/>
<path d="M3661 306 c-11 -13 -11 -16 -1 -16 10 0 10 -3 0 -15 -7 -8 -16 -12
-21 -9 -5 3 -9 0 -9 -5 0 -12 13 -15 23 -4 11 10 57 13 57 3 0 -5 -6 -11 -12
-13 -8 -4 -9 -6 -2 -6 18 -1 44 44 34 59 -7 11 -11 11 -23 1 -13 -10 -17 -9
-24 4 -9 15 -11 15 -22 1z m29 -27 c0 -5 -4 -9 -8 -9 -5 0 -9 7 -9 15 0 8 4
12 9 9 4 -3 8 -9 8 -15z m34 0 c-3 -5 -10 -7 -15 -3 -5 3 -7 10 -3 15 3 5 10
7 15 3 5 -3 7 -10 3 -15z"/>
<path d="M4621 306 c-11 -13 -11 -16 -1 -16 10 0 10 -3 0 -15 -7 -8 -16 -12
-21 -9 -5 3 -9 0 -9 -5 0 -12 13 -15 23 -4 11 10 57 13 57 3 0 -5 -6 -11 -12
-13 -10 -4 -10 -6 0 -6 7 -1 15 6 18 14 4 8 10 13 15 10 8 -6 4 34 -5 43 -3 3
-12 -1 -20 -7 -11 -10 -16 -9 -23 4 -9 15 -11 15 -22 1z m29 -27 c0 -5 -4 -9
-8 -9 -5 0 -9 7 -9 15 0 8 4 12 9 9 4 -3 8 -9 8 -15z m34 0 c-3 -5 -10 -7 -15
-3 -5 3 -7 10 -3 15 3 5 10 7 15 3 5 -3 7 -10 3 -15z"/>
<path d="M5268 313 c6 -2 18 -2 25 0 6 3 1 5 -13 5 -14 0 -19 -2 -12 -5z"/>
<path d="M307 299 c7 -7 15 -10 18 -7 3 3 -2 9 -12 12 -14 6 -15 5 -6 -5z"/>
<path d="M864 294 c4 -11 9 -27 12 -38 5 -25 17 -36 12 -12 -1 10 3 21 11 24
8 3 11 0 7 -7 -4 -6 -2 -11 4 -11 7 0 10 7 6 18 -5 14 -3 13 10 -3 15 -19 15
-19 10 9 -6 36 -13 43 -28 28 -8 -8 -17 -8 -31 0 -17 9 -19 8 -13 -8z m60 -2
c3 -5 -1 -9 -9 -9 -8 0 -12 4 -9 9 3 4 7 8 9 8 2 0 6 -4 9 -8z"/>
<path d="M1344 284 c3 -25 20 -44 41 -44 6 0 3 4 -5 10 -8 5 -11 12 -7 17 5 4
17 -3 27 -17 19 -24 19 -24 13 -2 -3 13 -1 22 6 22 7 0 9 -5 5 -12 -5 -9 -2
-9 9 1 22 17 47 -1 42 -29 -2 -11 0 -22 5 -25 5 -3 7 4 5 16 -3 16 0 20 13 15
15 -5 15 -4 -1 8 -12 9 -15 16 -7 21 8 5 8 11 -1 21 -10 12 -15 13 -33 0 -19
-12 -26 -12 -49 0 -15 8 -27 12 -27 9 0 -3 -9 -1 -19 5 -17 9 -19 7 -17 -16z
m17 -17 c-10 -9 -11 -8 -5 6 3 10 9 15 12 12 3 -3 0 -11 -7 -18z m44 5 c-3 -3
-11 0 -18 7 -9 10 -8 11 6 5 10 -3 15 -9 12 -12z m79 -3 c-3 -5 -10 -7 -15 -3
-5 3 -7 10 -3 15 3 5 10 7 15 3 5 -3 7 -10 3 -15z"/>
<path d="M2304 284 c3 -25 20 -44 41 -44 6 0 3 4 -5 10 -8 5 -11 12 -7 17 5 4
17 -3 27 -17 19 -24 19 -24 13 -2 -3 13 -1 22 6 22 7 0 9 -5 5 -12 -5 -9 -2
-9 9 1 22 17 47 -1 42 -29 -2 -11 0 -22 5 -25 5 -3 7 4 5 16 -3 16 0 20 13 15
15 -5 15 -4 -1 8 -12 9 -15 16 -7 21 8 5 8 11 -1 21 -10 12 -15 13 -33 0 -19
-12 -26 -12 -49 0 -15 8 -27 12 -27 9 0 -3 -9 -1 -19 5 -17 9 -19 7 -17 -16z
m17 -17 c-10 -9 -11 -8 -5 6 3 10 9 15 12 12 3 -3 0 -11 -7 -18z m44 5 c-3 -3
-11 0 -18 7 -9 10 -8 11 6 5 10 -3 15 -9 12 -12z m79 -3 c-3 -5 -10 -7 -15 -3
-5 3 -7 10 -3 15 3 5 10 7 15 3 5 -3 7 -10 3 -15z"/>
<path d="M2784 294 c4 -11 9 -27 12 -38 5 -25 17 -36 12 -12 -1 10 3 21 11 24
8 3 11 0 7 -7 -4 -6 -2 -11 4 -11 7 0 10 7 6 18 -5 14 -3 13 10 -3 15 -19 15
-19 10 9 -6 36 -13 43 -28 28 -8 -8 -17 -8 -31 0 -17 9 -19 8 -13 -8z m60 -2
c3 -5 -1 -9 -9 -9 -8 0 -12 4 -9 9 3 4 7 8 9 8 2 0 6 -4 9 -8z"/>
<path d="M3264 284 c3 -25 20 -44 41 -44 6 0 3 4 -5 10 -8 5 -11 12 -7 17 5 4
17 -3 27 -17 19 -24 19 -24 13 -2 -3 13 -1 22 6 22 7 0 9 -5 5 -12 -5 -9 -2
-9 9 1 22 17 47 -1 42 -29 -2 -11 0 -22 5 -25 5 -3 7 4 5 16 -3 16 0 20 13 15
15 -5 15 -4 -1 8 -12 9 -15 16 -7 21 8 5 8 11 -1 21 -10 12 -15 13 -33 0 -19
-12 -26 -12 -49 0 -15 8 -27 12 -27 9 0 -3 -9 -1 -19 5 -17 9 -19 7 -17 -16z
m17 -17 c-10 -9 -11 -8 -5 6 3 10 9 15 12 12 3 -3 0 -11 -7 -18z m44 5 c-3 -3
-11 0 -18 7 -9 10 -8 11 6 5 10 -3 15 -9 12 -12z m79 -3 c-3 -5 -10 -7 -15 -3
-5 3 -7 10 -3 15 3 5 10 7 15 3 5 -3 7 -10 3 -15z"/>
<path d="M4224 284 c3 -25 20 -44 41 -44 6 0 3 4 -5 10 -8 5 -11 12 -7 17 5 4
17 -3 27 -17 19 -24 19 -24 13 -2 -3 13 -1 22 6 22 7 0 9 -5 5 -12 -5 -9 -2
-9 9 1 22 17 47 -1 42 -29 -2 -11 0 -22 5 -25 5 -3 7 4 5 16 -3 16 0 20 13 15
15 -5 15 -4 -1 8 -12 9 -15 16 -7 21 8 5 8 11 -1 21 -10 12 -15 13 -33 0 -19
-12 -26 -12 -49 0 -15 8 -27 12 -27 9 0 -3 -9 -1 -19 5 -17 9 -19 7 -17 -16z
m17 -17 c-10 -9 -11 -8 -5 6 3 10 9 15 12 12 3 -3 0 -11 -7 -18z m44 5 c-3 -3
-11 0 -18 7 -9 10 -8 11 6 5 10 -3 15 -9 12 -12z m79 -3 c-3 -5 -10 -7 -15 -3
-5 3 -7 10 -3 15 3 5 10 7 15 3 5 -3 7 -10 3 -15z"/>
<path d="M4704 294 c4 -11 9 -27 12 -38 5 -25 17 -36 12 -12 -1 10 3 21 11 24
8 3 11 0 7 -7 -4 -6 -2 -11 4 -11 7 0 10 7 6 18 -5 14 -3 13 10 -3 15 -19 15
-19 10 9 -6 36 -13 43 -28 28 -8 -8 -17 -8 -31 0 -17 9 -19 8 -13 -8z m60 -2
c3 -5 -1 -9 -9 -9 -8 0 -12 4 -9 9 3 4 7 8 9 8 2 0 6 -4 9 -8z"/>
<path d="M356 281 c-3 -5 2 -15 12 -22 15 -12 16 -12 5 2 -7 9 -10 19 -6 22 3
4 4 7 0 7 -3 0 -8 -4 -11 -9z"/>
<path d="M650 277 c-8 -7 -16 -19 -18 -27 -2 -11 1 -11 11 3 15 18 33 24 22 7
-3 -5 -1 -10 4 -10 13 0 14 10 3 27 -5 9 -11 8 -22 0z"/>
<path d="M699 273 c-7 -10 -9 -15 -4 -10 13 11 44 -22 38 -41 -4 -14 -3 -15 5
-2 7 9 7 18 1 26 -5 7 -8 17 -7 24 5 20 -18 22 -33 3z"/>
<path d="M1610 277 c-8 -7 -16 -21 -17 -32 -2 -18 -1 -18 9 3 6 12 15 22 20
22 5 0 6 -4 3 -10 -3 -5 -1 -10 4 -10 13 0 14 10 3 27 -5 9 -11 9 -22 0z"/>
<path d="M1659 273 c-7 -10 -9 -15 -4 -10 13 11 44 -22 38 -41 -4 -14 -3 -15
5 -2 7 9 7 18 1 26 -5 7 -8 17 -7 24 5 20 -18 22 -33 3z"/>
<path d="M2570 277 c-8 -7 -16 -21 -17 -32 -2 -18 -1 -18 9 3 6 12 15 22 20
22 5 0 6 -4 3 -10 -3 -5 -1 -10 4 -10 13 0 14 10 3 27 -5 9 -11 9 -22 0z"/>
<path d="M2619 273 c-7 -10 -9 -15 -4 -10 13 11 44 -22 38 -41 -4 -14 -3 -15
5 -2 7 9 7 18 1 26 -5 7 -8 17 -7 24 5 20 -18 22 -33 3z"/>
<path d="M3530 277 c-8 -7 -16 -21 -17 -32 -2 -18 -1 -18 9 3 6 12 15 22 20
22 5 0 6 -4 3 -10 -3 -5 -1 -10 4 -10 13 0 14 10 3 27 -5 9 -11 9 -22 0z"/>
<path d="M3579 273 c-7 -10 -9 -15 -4 -10 13 11 44 -22 38 -41 -4 -14 -3 -15
5 -2 7 9 7 18 1 26 -5 7 -8 17 -7 24 5 20 -18 22 -33 3z"/>
<path d="M4490 277 c-8 -7 -16 -21 -17 -32 -2 -18 -1 -18 9 3 6 12 15 22 20
22 5 0 6 -4 3 -10 -3 -5 -1 -10 4 -10 13 0 14 10 3 27 -5 9 -11 9 -22 0z"/>
<path d="M4539 273 c-7 -10 -9 -15 -4 -10 13 11 44 -22 38 -41 -4 -14 -3 -15
5 -2 7 9 7 18 1 26 -5 7 -8 17 -7 24 5 20 -18 22 -33 3z"/>
<path d="M1510 263 c0 -13 17 -26 38 -29 6 -1 9 2 6 8 -3 5 -8 7 -12 4 -3 -3
-11 2 -18 12 -8 9 -14 12 -14 5z"/>
<path d="M2470 263 c0 -13 17 -26 38 -29 6 -1 9 2 6 8 -3 5 -8 7 -12 4 -3 -3
-11 2 -18 12 -8 9 -14 12 -14 5z"/>
<path d="M3430 263 c0 -13 17 -26 38 -29 6 -1 9 2 6 8 -3 5 -8 7 -12 4 -3 -3
-11 2 -18 12 -8 9 -14 12 -14 5z"/>
<path d="M4390 263 c0 -13 17 -26 38 -29 6 -1 9 2 6 8 -3 5 -8 7 -12 4 -3 -3
-11 2 -18 12 -8 9 -14 12 -14 5z"/>
<path d="M556 244 c-4 -9 -4 -19 -1 -22 3 -3 5 0 5 7 0 7 4 9 10 6 6 -3 7 1 4
9 -8 20 -10 20 -18 0z"/>
<path d="M950 251 c0 -5 5 -13 10 -16 6 -3 10 -2 10 4 0 5 -4 13 -10 16 -5 3
-10 2 -10 -4z"/>
<path d="M2870 251 c0 -5 5 -13 10 -16 6 -3 10 -2 10 4 0 5 -4 13 -10 16 -5 3
-10 2 -10 -4z"/>
<path d="M4790 251 c0 -5 5 -13 10 -16 6 -3 10 -2 10 4 0 5 -4 13 -10 16 -5 3
-10 2 -10 -4z"/>
<path d="M776 242 c-2 -4 0 -14 6 -22 8 -12 9 -12 5 2 -3 9 -1 19 6 22 9 3 9
5 0 5 -6 1 -14 -3 -17 -7z"/>
<path d="M853 235 c0 -8 4 -12 9 -9 5 3 6 10 3 15 -9 13 -12 11 -12 -6z"/>
<path d="M1214 242 c10 -17 -13 -25 -32 -11 -15 12 -15 11 1 -6 16 -18 18 -18
33 -3 12 12 13 17 3 23 -7 5 -10 4 -5 -3z"/>
<path d="M1333 235 c0 -8 4 -12 9 -9 5 3 6 10 3 15 -9 13 -12 11 -12 -6z"/>
<path d="M1439 248 c-6 -21 -5 -37 2 -32 5 3 7 9 4 14 -3 4 1 11 7 13 10 4 10
6 1 6 -7 1 -13 0 -14 -1z"/>
<path d="M1736 242 c-2 -4 0 -14 6 -22 8 -12 9 -12 5 2 -3 9 -1 19 6 22 9 3 9
5 0 5 -6 1 -14 -3 -17 -7z"/>
<path d="M1813 235 c0 -8 4 -12 9 -9 5 3 6 10 3 15 -9 13 -12 11 -12 -6z"/>
<path d="M1855 241 c-3 -6 3 -15 14 -21 14 -7 22 -7 26 0 4 6 3 10 -2 9 -20
-3 -34 2 -28 11 3 6 4 10 1 10 -3 0 -7 -4 -11 -9z"/>
<path d="M1916 235 c-9 -26 -7 -32 5 -12 6 10 9 21 6 23 -2 3 -7 -2 -11 -11z"/>
<path d="M2174 242 c10 -17 -13 -25 -32 -11 -15 12 -15 11 1 -6 16 -18 18 -18
33 -3 12 12 13 17 3 23 -7 5 -10 4 -5 -3z"/>
<path d="M2293 235 c0 -8 4 -12 9 -9 5 3 6 10 3 15 -9 13 -12 11 -12 -6z"/>
<path d="M2399 248 c-6 -21 -5 -37 2 -32 5 3 7 9 4 14 -3 4 1 11 7 13 10 4 10
6 1 6 -7 1 -13 0 -14 -1z"/>
<path d="M2696 242 c-2 -4 0 -14 6 -22 8 -12 9 -12 5 2 -3 9 -1 19 6 22 9 3 9
5 0 5 -6 1 -14 -3 -17 -7z"/>
<path d="M2773 235 c0 -8 4 -12 9 -9 5 3 6 10 3 15 -9 13 -12 11 -12 -6z"/>
<path d="M3134 242 c10 -17 -13 -25 -32 -11 -15 12 -15 11 1 -6 16 -18 18 -18
33 -3 12 12 13 17 3 23 -7 5 -10 4 -5 -3z"/>
<path d="M3253 235 c0 -8 4 -12 9 -9 5 3 6 10 3 15 -9 13 -12 11 -12 -6z"/>
<path d="M3359 248 c-6 -21 -5 -37 2 -32 5 3 7 9 4 14 -3 4 1 11 7 13 10 4 10
6 1 6 -7 1 -13 0 -14 -1z"/>
<path d="M3656 242 c-2 -4 0 -14 6 -22 8 -12 9 -12 5 2 -3 9 -1 19 6 22 9 3 9
5 0 5 -6 1 -14 -3 -17 -7z"/>
<path d="M3733 235 c0 -8 4 -12 9 -9 5 3 6 10 3 15 -9 13 -12 11 -12 -6z"/>
<path d="M3775 241 c-3 -6 3 -15 14 -21 14 -7 22 -7 26 0 4 6 3 10 -2 9 -20
-3 -34 2 -28 11 3 6 4 10 1 10 -3 0 -7 -4 -11 -9z"/>
<path d="M3836 235 c-9 -26 -7 -32 5 -12 6 10 9 21 6 23 -2 3 -7 -2 -11 -11z"/>
<path d="M4094 242 c10 -17 -13 -25 -32 -11 -15 12 -15 11 1 -6 16 -18 18 -18
33 -3 12 12 13 17 3 23 -7 5 -10 4 -5 -3z"/>
<path d="M4213 235 c0 -8 4 -12 9 -9 5 3 6 10 3 15 -9 13 -12 11 -12 -6z"/>
<path d="M4319 248 c-6 -21 -5 -37 2 -32 5 3 7 9 4 14 -3 4 1 11 7 13 10 4 10
6 1 6 -7 1 -13 0 -14 -1z"/>
<path d="M4616 242 c-2 -4 0 -14 6 -22 8 -12 9 -12 5 2 -3 9 -1 19 6 22 9 3 9
5 0 5 -6 1 -14 -3 -17 -7z"/>
<path d="M4693 235 c0 -8 4 -12 9 -9 5 3 6 10 3 15 -9 13 -12 11 -12 -6z"/>
<path d="M5190 238 c0 -11 12 -10 30 2 12 7 10 9 -8 7 -12 0 -22 -5 -22 -9z"/>
<path d="M650 236 c0 -2 8 -10 18 -17 15 -13 16 -12 3 4 -13 16 -21 21 -21 13z"/>
<path d="M1093 227 c0 -8 6 -14 14 -14 9 0 10 4 2 14 -6 7 -12 13 -14 13 -1 0
-2 -6 -2 -13z"/>
<path d="M1610 236 c0 -2 8 -10 18 -17 15 -13 16 -12 3 4 -13 16 -21 21 -21
13z"/>
<path d="M2053 227 c0 -8 6 -14 14 -14 9 0 10 4 2 14 -6 7 -12 13 -14 13 -1 0
-2 -6 -2 -13z"/>
<path d="M2570 236 c0 -2 8 -10 18 -17 15 -13 16 -12 3 4 -13 16 -21 21 -21
13z"/>
<path d="M3013 227 c0 -8 6 -14 14 -14 9 0 10 4 2 14 -6 7 -12 13 -14 13 -1 0
-2 -6 -2 -13z"/>
<path d="M3530 236 c0 -2 8 -10 18 -17 15 -13 16 -12 3 4 -13 16 -21 21 -21
13z"/>
<path d="M3973 227 c0 -8 6 -14 14 -14 9 0 10 4 2 14 -6 7 -12 13 -14 13 -1 0
-2 -6 -2 -13z"/>
<path d="M4490 236 c0 -2 8 -10 18 -17 15 -13 16 -12 3 4 -13 16 -21 21 -21
13z"/>
<path d="M4933 227 c0 -8 6 -14 14 -14 9 0 10 4 2 14 -6 7 -12 13 -14 13 -1 0
-2 -6 -2 -13z"/>
<path d="M5013 227 c0 -8 6 -14 14 -14 9 0 10 4 2 14 -6 7 -12 13 -14 13 -1 0
-2 -6 -2 -13z"/>
<path d="M507 219 c7 -7 15 -10 18 -7 3 3 -2 9 -12 12 -14 6 -15 5 -6 -5z"/>
<path d="M815 220 c3 -5 8 -10 11 -10 2 0 4 5 4 10 0 6 -5 10 -11 10 -5 0 -7
-4 -4 -10z"/>
<path d="M1295 220 c3 -5 8 -10 11 -10 2 0 4 5 4 10 0 6 -5 10 -11 10 -5 0 -7
-4 -4 -10z"/>
<path d="M1775 220 c3 -5 8 -10 11 -10 2 0 4 5 4 10 0 6 -5 10 -11 10 -5 0 -7
-4 -4 -10z"/>
<path d="M2255 220 c3 -5 8 -10 11 -10 2 0 4 5 4 10 0 6 -5 10 -11 10 -5 0 -7
-4 -4 -10z"/>
<path d="M2735 220 c3 -5 8 -10 11 -10 2 0 4 5 4 10 0 6 -5 10 -11 10 -5 0 -7
-4 -4 -10z"/>
<path d="M3215 220 c3 -5 8 -10 11 -10 2 0 4 5 4 10 0 6 -5 10 -11 10 -5 0 -7
-4 -4 -10z"/>
<path d="M3695 220 c3 -5 8 -10 11 -10 2 0 4 5 4 10 0 6 -5 10 -11 10 -5 0 -7
-4 -4 -10z"/>
<path d="M4175 220 c3 -5 8 -10 11 -10 2 0 4 5 4 10 0 6 -5 10 -11 10 -5 0 -7
-4 -4 -10z"/>
<path d="M4655 220 c3 -5 8 -10 11 -10 2 0 4 5 4 10 0 6 -5 10 -11 10 -5 0 -7
-4 -4 -10z"/>
</g>
</svg>
